<svg xmlns="http://www.w3.org/2000/svg" xmlns:xlink="http://www.w3.org/1999/xlink" width="500" zoomAndPan="magnify" viewBox="0 0 375 374.999991" height="500" preserveAspectRatio="xMidYMid meet" version="1.0"><defs><clipPath id="id1"><path d="M 37.5 62.316406 L 337.5 62.316406 L 337.5 312.816406 L 37.5 312.816406 Z M 37.5 62.316406 " clip-rule="nonzero"/></clipPath><clipPath id="id2"><path d="M 37.5 192 L 195 192 L 195 312.816406 L 37.5 312.816406 Z M 37.5 192 " clip-rule="nonzero"/></clipPath><clipPath id="id3"><path d="M 37.5 72 L 278 72 L 278 312.816406 L 37.5 312.816406 Z M 37.5 72 " clip-rule="nonzero"/></clipPath><clipPath id="id4"><path d="M 146 62.316406 L 337.5 62.316406 L 337.5 271 L 146 271 Z M 146 62.316406 " clip-rule="nonzero"/></clipPath></defs><path fill="#ff6500" d="M 193.585938 176.796875 C 193.585938 176.738281 193.585938 176.679688 193.585938 176.617188 C 193.585938 176.558594 193.585938 176.5 193.585938 176.4375 C 193.585938 176.316406 193.585938 176.257812 193.585938 176.136719 C 193.585938 176.257812 193.527344 176.378906 193.527344 176.5 L 193.527344 176.796875 Z M 193.585938 176.796875 " fill-opacity="1" fill-rule="nonzero"/><g clip-path="url(#id1)"><path fill="#ff6500" d="M 146.8125 72.9375 L 37.554688 72.9375 L 37.554688 312.816406 L 277.300781 312.816406 L 277.300781 252.519531 L 294.988281 270.21875 L 314.179688 251.019531 L 329.648438 266.5 L 337.445312 258.699219 L 314.179688 235.476562 L 294.988281 254.679688 L 277.300781 236.976562 L 277.300781 203.679688 L 277.539062 203.679688 L 277.539062 203.5 L 287.914062 203.5 L 287.914062 62.316406 L 146.8125 62.316406 L 146.8125 72.9375 L 147.113281 72.9375 M 241.378906 193.058594 L 241.378906 179.5 C 241.378906 177.816406 241.199219 176.199219 240.898438 174.636719 C 240.601562 173.078125 240.121094 171.578125 239.519531 170.136719 C 239.042969 169 238.441406 167.917969 237.78125 166.839844 C 237.601562 166.476562 237.363281 166.117188 237.121094 165.816406 C 236.042969 164.257812 234.785156 162.816406 233.34375 161.558594 C 232.863281 161.078125 232.265625 160.65625 231.726562 160.238281 C 230.765625 159.519531 229.6875 158.796875 228.546875 158.257812 C 227.707031 157.777344 226.867188 157.417969 225.96875 157.058594 C 223.628906 156.15625 221.109375 155.617188 218.53125 155.5 C 218.171875 155.5 217.8125 155.5 217.453125 155.5 L 216.554688 155.5 C 215.894531 155.5 215.175781 155.558594 214.515625 155.679688 C 214.273438 155.679688 214.09375 155.738281 213.855469 155.738281 C 213.496094 155.796875 213.136719 155.917969 212.777344 155.976562 L 212.65625 155.976562 C 211.9375 156.15625 211.214844 156.277344 210.558594 156.457031 C 209.777344 156.699219 208.9375 157.058594 208.21875 157.359375 C 208.21875 157.417969 208.21875 157.417969 208.160156 157.417969 C 208.160156 157.417969 208.097656 157.417969 208.097656 157.476562 C 208.097656 157.476562 208.039062 157.476562 207.976562 157.539062 C 207.976562 157.539062 207.976562 157.539062 207.917969 157.539062 C 207.738281 157.597656 207.617188 157.65625 207.4375 157.71875 C 206.539062 158.136719 205.640625 158.617188 204.800781 159.15625 C 204.621094 159.277344 204.441406 159.339844 204.261719 159.457031 C 204.261719 159.457031 204.261719 159.457031 204.199219 159.519531 C 204.140625 159.519531 204.140625 159.519531 204.082031 159.519531 L 204.019531 159.578125 C 204.019531 159.578125 204.019531 159.578125 203.960938 159.578125 C 203.960938 159.578125 203.960938 159.578125 203.902344 159.578125 C 203.78125 159.636719 203.660156 159.757812 203.539062 159.816406 C 202.222656 160.777344 201.023438 161.859375 199.941406 163.058594 C 199.285156 163.71875 198.742188 164.4375 198.203125 165.15625 C 197.542969 166 197.003906 166.898438 196.523438 167.859375 C 195.566406 169.597656 194.847656 171.398438 194.367188 173.378906 C 194.304688 173.617188 194.246094 173.859375 194.1875 174.097656 C 194.125 174.398438 194.066406 174.699219 194.007812 175 C 194.007812 175.117188 193.945312 175.238281 193.945312 175.359375 C 193.945312 175.539062 193.886719 175.71875 193.886719 175.839844 C 193.886719 175.898438 193.886719 175.898438 193.886719 175.957031 C 193.886719 176.199219 193.828125 176.378906 193.828125 176.617188 C 193.765625 177.039062 193.707031 177.398438 193.707031 177.816406 C 193.707031 178.058594 193.707031 178.296875 193.648438 178.597656 L 193.648438 192.757812 L 157.667969 192.757812 L 157.667969 156.757812 L 144.292969 156.757812 C 143.453125 156.757812 142.613281 156.699219 141.835938 156.636719 C 136.140625 156.039062 131.101562 153.519531 127.324219 149.738281 C 126.542969 148.957031 125.882812 148.117188 125.226562 147.21875 C 124.683594 146.5 124.144531 145.71875 123.664062 144.9375 C 123.125 144.039062 122.585938 143.078125 122.226562 142.117188 C 121.027344 139.238281 120.308594 136.117188 120.308594 132.816406 C 120.308594 129.519531 120.96875 126.457031 122.167969 123.578125 C 122.527344 122.679688 123.007812 121.71875 123.484375 120.816406 C 124.207031 119.617188 124.925781 118.539062 125.824219 117.519531 C 127.265625 115.71875 129.003906 114.21875 130.921875 112.898438 C 134.757812 110.316406 139.378906 108.816406 144.355469 108.816406 L 157.726562 108.816406 L 157.726562 72.9375 L 277.300781 72.9375 L 277.300781 193.058594 Z M 241.378906 193.058594 " fill-opacity="1" fill-rule="nonzero"/></g><path fill="#ff6500" d="M 193.707031 175.839844 C 193.707031 175.898438 193.707031 175.957031 193.707031 176.019531 C 193.707031 175.839844 193.765625 175.65625 193.765625 175.539062 C 193.765625 175.476562 193.765625 175.417969 193.765625 175.359375 C 193.765625 175.296875 193.765625 175.296875 193.765625 175.238281 C 193.765625 175.238281 193.765625 175.179688 193.765625 175.117188 C 193.765625 175.417969 193.765625 175.597656 193.707031 175.839844 Z M 193.707031 175.839844 " fill-opacity="1" fill-rule="nonzero"/><path fill="#ff6500" d="M 193.585938 176.4375 C 193.585938 176.5 193.585938 176.558594 193.585938 176.617188 C 193.585938 176.679688 193.585938 176.738281 193.585938 176.796875 L 193.585938 176.4375 C 193.585938 176.316406 193.585938 176.257812 193.585938 176.136719 C 193.648438 176.257812 193.648438 176.378906 193.585938 176.4375 Z M 193.828125 175.238281 C 193.828125 175.238281 193.828125 175.296875 193.828125 175.359375 C 193.828125 175.417969 193.828125 175.476562 193.828125 175.539062 C 193.828125 175.65625 193.765625 175.839844 193.765625 176.019531 C 193.765625 175.957031 193.765625 175.898438 193.765625 175.839844 C 193.765625 175.597656 193.828125 175.417969 193.886719 175.238281 C 193.828125 175.238281 193.828125 175.238281 193.828125 175.238281 Z M 193.828125 175.238281 " fill-opacity="1" fill-rule="nonzero"/><g clip-path="url(#id2)"><path fill="#333333" d="M 170.800781 276.878906 C 171.640625 276.878906 172.417969 276.816406 173.257812 276.757812 C 175.65625 276.519531 177.996094 275.917969 180.152344 275.019531 C 182.3125 274.117188 184.292969 272.917969 186.089844 271.417969 C 187.289062 270.457031 188.371094 269.378906 189.328125 268.179688 C 190.289062 266.976562 191.1875 265.71875 191.90625 264.339844 C 192.265625 263.679688 192.628906 262.957031 192.925781 262.238281 C 194.125 259.359375 194.785156 256.238281 194.785156 252.878906 C 194.785156 251.859375 194.726562 250.839844 194.605469 249.816406 C 193.707031 242.796875 189.808594 236.738281 184.230469 232.957031 C 181.054688 230.796875 177.335938 229.417969 173.257812 229 C 172.476562 228.9375 171.640625 228.878906 170.800781 228.878906 L 157.425781 228.878906 L 157.425781 203.558594 L 146.8125 203.558594 L 146.8125 192.9375 L 121.445312 192.9375 L 121.445312 206.316406 C 121.445312 218.738281 112.03125 228.9375 99.917969 230.199219 C 99.140625 230.257812 98.300781 230.316406 97.460938 230.316406 C 92.484375 230.316406 87.867188 228.816406 84.027344 226.238281 C 77.730469 221.859375 73.535156 214.539062 73.535156 206.257812 L 73.535156 192.878906 L 37.554688 192.878906 L 37.554688 312.816406 L 157.425781 312.816406 L 157.425781 276.816406 L 170.800781 276.816406 Z M 170.800781 276.878906 " fill-opacity="1" fill-rule="nonzero"/></g><g clip-path="url(#id3)"><path fill="#ffcb00" d="M 276.398438 251.617188 L 277.300781 252.519531 L 277.300781 312.816406 L 157.425781 312.816406 L 157.425781 276.816406 L 170.800781 276.816406 C 171.640625 276.816406 172.417969 276.757812 173.257812 276.699219 C 175.65625 276.457031 177.996094 275.859375 180.152344 274.957031 C 182.3125 274.058594 184.292969 272.859375 186.089844 271.359375 C 187.289062 270.398438 188.371094 269.316406 189.328125 268.117188 C 190.289062 266.917969 191.1875 265.65625 191.90625 264.277344 C 192.265625 263.617188 192.628906 262.898438 192.925781 262.179688 C 194.125 259.296875 194.785156 256.179688 194.785156 252.816406 C 194.785156 251.796875 194.726562 250.777344 194.605469 249.757812 C 193.707031 242.738281 189.808594 236.679688 184.230469 232.898438 C 181.054688 230.738281 177.335938 229.359375 173.257812 228.9375 C 172.476562 228.878906 171.640625 228.816406 170.800781 228.816406 L 157.425781 228.816406 L 157.425781 203.5 L 204.019531 203.5 L 204.019531 179.5 C 204.019531 177.878906 204.320312 176.378906 204.859375 175 C 205.21875 173.976562 205.699219 173.019531 206.238281 172.179688 C 206.238281 172.179688 206.238281 172.117188 206.300781 172.058594 C 206.359375 171.9375 206.480469 171.878906 206.539062 171.757812 C 206.597656 171.699219 206.660156 171.636719 206.71875 171.578125 C 206.960938 171.277344 207.199219 171.039062 207.4375 170.738281 C 207.679688 170.5 207.859375 170.199219 208.160156 169.957031 C 208.636719 169.539062 209.117188 169.117188 209.65625 168.757812 C 211.816406 167.199219 214.515625 166.238281 217.394531 166.238281 C 220.152344 166.238281 222.730469 167.078125 224.828125 168.519531 C 224.890625 168.578125 224.949219 168.636719 225.007812 168.636719 C 228.425781 171.039062 230.707031 175.058594 230.707031 179.558594 L 230.707031 203.558594 L 277.300781 203.558594 L 277.300781 237.039062 L 276.398438 236.136719 L 258.351562 254.199219 L 240.179688 236.019531 L 217.273438 258.9375 L 225.070312 266.738281 L 240.242188 251.558594 L 258.410156 269.738281 Z M 207.257812 157.839844 C 207.4375 157.777344 207.617188 157.71875 207.796875 157.65625 C 207.617188 157.65625 207.4375 157.71875 207.257812 157.839844 Z M 204.679688 159.277344 C 204.621094 159.339844 204.5 159.339844 204.441406 159.398438 C 204.5 159.398438 204.558594 159.339844 204.679688 159.277344 Z M 225.910156 157.117188 C 223.269531 156.097656 220.390625 155.558594 217.394531 155.558594 C 217.332031 155.558594 217.214844 155.558594 217.152344 155.558594 C 217.214844 155.558594 217.273438 155.558594 217.394531 155.558594 C 220.390625 155.558594 223.269531 156.097656 225.910156 157.117188 Z M 214.09375 155.796875 C 214.214844 155.796875 214.273438 155.796875 214.394531 155.796875 C 214.335938 155.796875 214.214844 155.738281 214.09375 155.796875 Z M 213.734375 155.796875 C 213.855469 155.796875 213.976562 155.796875 214.09375 155.738281 C 213.976562 155.796875 213.855469 155.796875 213.734375 155.796875 Z M 203.78125 159.757812 L 203.839844 159.699219 C 203.839844 159.757812 203.839844 159.757812 203.78125 159.757812 Z M 204.378906 159.398438 C 204.261719 159.457031 204.199219 159.519531 204.082031 159.578125 C 204.199219 159.519531 204.320312 159.457031 204.378906 159.398438 Z M 241.378906 192.878906 L 277.359375 192.878906 Z M 73.535156 206.257812 C 73.535156 214.539062 77.730469 221.859375 84.089844 226.179688 C 87.925781 228.757812 92.542969 230.257812 97.519531 230.257812 C 98.359375 230.257812 99.140625 230.199219 99.980469 230.136719 C 112.09375 228.9375 121.507812 218.679688 121.507812 206.257812 L 121.507812 192.878906 L 146.871094 192.878906 L 146.871094 167.5 L 144.113281 167.5 C 125.046875 167.5 109.515625 151.957031 109.515625 132.878906 C 109.515625 113.796875 124.984375 98.316406 144.054688 98.316406 L 146.8125 98.316406 L 146.8125 72.9375 L 37.554688 72.9375 L 37.554688 192.878906 L 73.535156 192.878906 Z M 193.40625 192.878906 L 157.425781 192.878906 Z M 193.40625 192.878906 " fill-opacity="1" fill-rule="nonzero"/></g><g clip-path="url(#id4)"><path fill="#cb3333" d="M 146.8125 72.9375 L 146.8125 62.316406 L 287.914062 62.316406 L 287.914062 203.5 L 277.300781 203.5 L 277.300781 72.9375 Z M 193.40625 179.5 C 193.40625 177.457031 193.707031 175.476562 194.1875 173.558594 C 193.707031 175.476562 193.40625 177.457031 193.40625 179.5 L 193.40625 192.878906 Z M 157.425781 192.878906 L 146.8125 192.878906 Z M 314.179688 235.476562 L 294.988281 254.679688 L 277.300781 236.976562 L 277.300781 252.519531 L 294.988281 270.21875 L 314.179688 251.019531 L 329.648438 266.5 L 337.445312 258.699219 Z M 314.179688 235.476562 " fill-opacity="1" fill-rule="nonzero"/></g><path fill="#ff6500" d="M 276.398438 236.078125 L 277.300781 236.976562 L 277.300781 252.519531 L 276.398438 251.617188 L 258.351562 269.679688 L 240.179688 251.5 L 225.007812 266.679688 L 217.214844 258.878906 L 240.121094 235.957031 L 258.289062 254.136719 Z M 157.425781 192.878906 L 175.417969 192.878906 Z M 193.585938 176.796875 C 193.585938 176.558594 193.648438 176.378906 193.648438 176.136719 C 193.648438 176.257812 193.585938 176.378906 193.585938 176.5 C 193.585938 176.558594 193.585938 176.679688 193.585938 176.796875 Z M 193.828125 175.179688 C 193.765625 175.476562 193.707031 175.71875 193.707031 176.019531 C 193.707031 175.839844 193.765625 175.65625 193.765625 175.539062 C 193.765625 175.417969 193.828125 175.296875 193.828125 175.179688 Z M 175.417969 192.878906 L 157.425781 192.878906 L 193.40625 192.878906 Z M 207.796875 157.597656 C 207.796875 157.597656 207.859375 157.597656 207.917969 157.597656 C 207.859375 157.597656 207.859375 157.597656 207.796875 157.597656 Z M 241.378906 192.878906 L 241.378906 179.5 C 241.378906 177.816406 241.199219 176.199219 240.898438 174.636719 C 240.601562 173.078125 240.121094 171.578125 239.519531 170.136719 C 239.042969 169 238.441406 167.917969 237.78125 166.839844 C 237.601562 166.476562 237.363281 166.117188 237.121094 165.816406 C 236.042969 164.257812 234.785156 162.816406 233.34375 161.558594 C 232.863281 161.078125 232.265625 160.65625 231.726562 160.238281 C 230.765625 159.519531 229.6875 158.796875 228.546875 158.257812 C 227.707031 157.777344 226.867188 157.417969 225.96875 157.058594 C 223.328125 156.039062 220.453125 155.5 217.453125 155.5 C 217.394531 155.5 217.273438 155.5 217.214844 155.5 C 216.3125 155.5 215.414062 155.558594 214.515625 155.679688 C 214.273438 155.679688 214.09375 155.738281 213.855469 155.738281 C 213.496094 155.796875 213.136719 155.917969 212.777344 155.976562 C 212.714844 155.976562 212.714844 155.976562 212.65625 155.976562 C 211.9375 156.15625 211.214844 156.277344 210.558594 156.457031 C 209.777344 156.699219 208.9375 157.058594 208.21875 157.359375 C 208.21875 157.417969 208.21875 157.417969 208.160156 157.417969 C 208.160156 157.417969 208.097656 157.417969 208.097656 157.476562 C 208.097656 157.476562 208.039062 157.476562 207.976562 157.539062 C 207.976562 157.539062 207.976562 157.539062 207.917969 157.539062 C 207.738281 157.597656 207.617188 157.65625 207.4375 157.71875 C 206.539062 158.136719 205.640625 158.617188 204.800781 159.15625 C 204.621094 159.277344 204.441406 159.339844 204.261719 159.457031 C 204.199219 159.519531 204.140625 159.519531 204.082031 159.519531 L 204.019531 159.578125 C 204.019531 159.578125 204.019531 159.578125 203.960938 159.578125 C 203.960938 159.578125 203.960938 159.578125 203.902344 159.578125 C 203.78125 159.636719 203.660156 159.757812 203.539062 159.816406 C 202.222656 160.777344 201.023438 161.859375 199.941406 163.058594 C 199.285156 163.71875 198.742188 164.4375 198.203125 165.15625 C 197.542969 166 197.003906 166.898438 196.523438 167.859375 C 195.566406 169.597656 194.847656 171.398438 194.367188 173.378906 C 194.304688 173.617188 194.246094 173.859375 194.1875 174.097656 C 194.125 174.398438 194.066406 174.699219 194.007812 175 C 194.007812 175.117188 193.945312 175.238281 193.945312 175.359375 C 193.945312 175.539062 193.886719 175.71875 193.886719 175.839844 C 193.886719 175.898438 193.886719 175.898438 193.886719 175.957031 C 193.886719 176.199219 193.828125 176.378906 193.828125 176.617188 C 193.765625 177.039062 193.707031 177.398438 193.707031 177.816406 C 193.707031 178.058594 193.707031 178.296875 193.648438 178.597656 C 193.648438 178.839844 193.648438 179.136719 193.648438 179.378906 L 193.648438 192.757812 L 157.667969 192.757812 L 157.667969 156.757812 L 144.292969 156.757812 C 137.636719 156.757812 131.640625 154.058594 127.324219 149.738281 C 126.542969 148.957031 125.882812 148.117188 125.226562 147.21875 C 124.683594 146.5 124.144531 145.71875 123.664062 144.9375 C 123.125 144.039062 122.585938 143.078125 122.226562 142.117188 C 121.027344 139.238281 120.308594 136.117188 120.308594 132.816406 C 120.308594 129.519531 120.96875 126.457031 122.167969 123.578125 C 122.527344 122.679688 123.007812 121.71875 123.484375 120.816406 C 124.207031 119.617188 124.925781 118.539062 125.824219 117.519531 C 127.265625 115.71875 129.003906 114.21875 130.921875 112.898438 C 134.757812 110.316406 139.378906 108.816406 144.355469 108.816406 L 157.726562 108.816406 L 157.726562 72.816406 L 147.113281 72.816406 L 147.113281 98.316406 L 144.355469 98.316406 C 134.820312 98.316406 126.183594 102.21875 119.886719 108.457031 C 117.730469 110.617188 115.871094 113.078125 114.3125 115.71875 C 113.890625 116.4375 113.53125 117.15625 113.113281 117.9375 C 112.753906 118.71875 112.390625 119.4375 112.09375 120.21875 C 111.914062 120.757812 111.671875 121.296875 111.492188 121.839844 C 110.292969 125.316406 109.695312 129.039062 109.695312 132.9375 C 109.695312 135.339844 109.933594 137.679688 110.414062 139.898438 C 110.714844 141.277344 111.074219 142.65625 111.550781 144.039062 C 111.734375 144.578125 111.914062 145.117188 112.152344 145.65625 C 112.332031 146.199219 112.570312 146.679688 112.8125 147.21875 C 113.050781 147.699219 113.292969 148.238281 113.53125 148.71875 C 113.769531 149.199219 114.070312 149.679688 114.3125 150.21875 C 115.808594 152.859375 117.730469 155.316406 119.886719 157.476562 C 120.488281 158.078125 121.085938 158.617188 121.6875 159.15625 C 122.347656 159.699219 122.945312 160.238281 123.605469 160.71875 C 124.027344 161.019531 124.503906 161.378906 124.984375 161.679688 C 130.503906 165.398438 137.160156 167.617188 144.292969 167.617188 L 147.050781 167.617188 L 147.050781 203.617188 L 204.261719 203.617188 L 204.261719 179.617188 C 204.261719 178 204.558594 176.5 205.101562 175.117188 C 205.460938 174.097656 205.941406 173.136719 206.480469 172.296875 C 206.480469 172.296875 206.480469 172.238281 206.539062 172.179688 C 206.597656 172.058594 206.71875 172 206.777344 171.878906 C 206.839844 171.816406 206.898438 171.757812 206.960938 171.699219 C 207.199219 171.398438 207.4375 171.160156 207.679688 170.859375 C 207.917969 170.558594 208.097656 170.316406 208.398438 170.078125 C 208.878906 169.660156 209.359375 169.238281 209.898438 168.878906 C 212.054688 167.316406 214.695312 166.359375 217.632812 166.359375 C 220.390625 166.359375 222.96875 167.199219 225.070312 168.636719 C 225.128906 168.699219 225.1875 168.757812 225.25 168.757812 C 228.726562 171.160156 230.945312 175.179688 230.945312 179.679688 L 230.945312 203.679688 L 277.539062 203.679688 L 277.539062 193.058594 L 241.378906 193.058594 Z M 241.378906 192.878906 " fill-opacity="1" fill-rule="nonzero"/></svg>