<svg xmlns="http://www.w3.org/2000/svg" xmlns:xlink="http://www.w3.org/1999/xlink" width="500" zoomAndPan="magnify" viewBox="0 0 375 374.999991" height="500" preserveAspectRatio="xMidYMid meet" version="1.0"><defs><clipPath id="id1"><path d="M 211 229 L 297 229 L 297 314.644531 L 211 314.644531 Z M 211 229 " clip-rule="nonzero"/></clipPath><clipPath id="id2"><path d="M 42 60.394531 L 297 60.394531 L 297 314.644531 L 42 314.644531 Z M 42 60.394531 " clip-rule="nonzero"/></clipPath><clipPath id="id3"><path d="M 208 168 L 337.40625 168 L 337.40625 314.644531 L 208 314.644531 Z M 208 168 " clip-rule="nonzero"/></clipPath><clipPath id="id4"><path d="M 42 60.394531 L 297 60.394531 L 297 314.644531 L 42 314.644531 Z M 42 60.394531 " clip-rule="nonzero"/></clipPath></defs><g clip-path="url(#id1)"><path fill="#ffcb00" d="M 284.566406 243.269531 C 276.828125 235.054688 265.902344 229.914062 253.738281 229.914062 C 230.351562 229.914062 211.390625 248.882812 211.390625 272.28125 C 211.390625 295.679688 230.351562 314.644531 253.738281 314.644531 C 277.125 314.644531 296.082031 295.679688 296.082031 272.28125 C 296.082031 265.191406 294.3125 258.511719 291.238281 252.664062 " fill-opacity="1" fill-rule="nonzero"/></g><path fill="#ffcb00" d="M 291.300781 252.605469 L 306.003906 237.890625 L 298.03125 229.796875 L 284.625 243.210938 " fill-opacity="1" fill-rule="nonzero"/><g clip-path="url(#id2)"><path fill="#cb3333" d="M 211.863281 108.433594 L 211.804688 108.433594 C 214.582031 129.171875 232.296875 145.125 253.738281 145.125 C 277.125 145.125 296.082031 126.160156 296.082031 102.761719 C 296.082031 79.363281 277.125 60.394531 253.738281 60.394531 C 232.296875 60.394531 214.582031 76.40625 211.804688 97.089844 L 163.375 97.089844 L 163.375 181.820312 L 78.683594 181.820312 L 78.683594 230.328125 C 57.957031 233.105469 42.007812 250.773438 42.007812 272.28125 C 42.007812 295.679688 60.96875 314.644531 84.355469 314.644531 C 107.742188 314.644531 126.699219 295.679688 126.699219 272.28125 C 126.699219 250.832031 110.753906 233.105469 90.023438 230.328125 L 90.023438 193.222656 L 174.714844 193.222656 L 174.714844 108.433594 L 211.804688 108.433594 " fill-opacity="1" fill-rule="nonzero"/></g><g clip-path="url(#id3)"><path fill="#ffcb00" d="M 337.304688 193.8125 L 328.980469 202.144531 L 312.441406 185.601562 L 291.949219 206.101562 L 272.046875 186.191406 L 252.734375 205.511719 L 233.304688 186.074219 L 217.0625 202.320312 L 208.734375 193.929688 L 233.242188 169.410156 L 252.675781 188.851562 L 271.988281 169.527344 L 291.890625 189.441406 L 312.382812 168.9375 Z M 229.050781 269.03125 L 237.082031 260.996094 L 251.964844 275.882812 L 284.566406 243.269531 C 276.828125 235.054688 265.902344 229.914062 253.738281 229.914062 C 230.351562 229.914062 211.390625 248.882812 211.390625 272.28125 C 211.390625 295.679688 230.351562 314.644531 253.738281 314.644531 C 277.125 314.644531 296.082031 295.679688 296.082031 272.28125 C 296.082031 265.191406 294.3125 258.511719 291.238281 252.664062 L 251.90625 292.015625 Z M 229.050781 269.03125 " fill-opacity="1" fill-rule="nonzero"/></g><path fill="#333333" d="M 306.003906 237.890625 L 291.300781 252.605469 C 289.527344 249.175781 287.222656 246.046875 284.625 243.210938 L 298.03125 229.796875 Z M 211.449219 102.761719 C 211.449219 100.8125 211.628906 98.917969 211.863281 97.089844 L 163.375 97.089844 L 163.375 181.820312 L 78.683594 181.820312 L 78.683594 230.328125 C 80.574219 230.09375 82.40625 229.914062 84.355469 229.914062 C 86.304688 229.914062 88.195312 230.09375 90.023438 230.328125 L 90.023438 193.222656 L 174.714844 193.222656 L 174.714844 108.433594 L 211.804688 108.433594 C 211.570312 106.601562 211.449219 104.710938 211.449219 102.761719 Z M 211.449219 102.761719 " fill-opacity="1" fill-rule="nonzero"/><path fill="#333333" d="M 284.566406 243.269531 C 287.222656 246.046875 289.46875 249.238281 291.238281 252.664062 L 251.90625 292.015625 L 228.992188 269.089844 L 237.023438 261.054688 L 251.90625 275.945312 Z M 211.449219 102.761719 C 211.449219 104.710938 211.628906 106.601562 211.863281 108.433594 L 250.488281 108.433594 L 236.316406 122.671875 L 244.347656 130.707031 L 272.28125 102.761719 L 244.347656 74.8125 L 236.316406 82.847656 L 250.488281 97.089844 L 211.804688 97.089844 C 211.570312 98.917969 211.449219 100.8125 211.449219 102.761719 Z M 84.355469 229.914062 C 82.40625 229.914062 80.515625 230.09375 78.683594 230.328125 L 78.683594 272.28125 L 90.023438 272.28125 L 90.023438 230.328125 C 88.195312 230.035156 86.304688 229.914062 84.355469 229.914062 Z M 84.355469 229.914062 " fill-opacity="1" fill-rule="nonzero"/><g clip-path="url(#id4)"><path fill="#cb3333" d="M 250.488281 97.089844 L 211.804688 97.089844 C 214.582031 76.40625 232.296875 60.394531 253.738281 60.394531 C 277.125 60.394531 296.082031 79.363281 296.082031 102.761719 C 296.082031 126.160156 277.125 145.125 253.738281 145.125 C 232.296875 145.125 214.582031 129.171875 211.804688 108.433594 L 250.488281 108.433594 L 236.316406 122.671875 L 244.347656 130.707031 L 272.28125 102.761719 L 244.347656 74.8125 L 236.316406 82.847656 Z M 78.683594 272.28125 L 78.683594 230.328125 C 57.957031 233.105469 42.007812 250.773438 42.007812 272.28125 C 42.007812 295.679688 60.96875 314.644531 84.355469 314.644531 C 107.742188 314.644531 126.699219 295.679688 126.699219 272.28125 C 126.699219 250.832031 110.753906 233.105469 90.023438 230.328125 L 90.023438 272.28125 Z M 42.007812 102.761719 C 42.007812 79.363281 60.96875 60.394531 84.355469 60.394531 C 107.742188 60.394531 126.699219 79.363281 126.699219 102.761719 C 126.699219 126.160156 107.742188 145.125 84.355469 145.125 C 60.96875 145.125 42.007812 126.160156 42.007812 102.761719 Z M 101.894531 128.34375 L 84.355469 110.796875 L 66.875 128.34375 C 71.835938 131.773438 77.859375 133.78125 84.355469 133.78125 C 90.851562 133.78125 96.875 131.773438 101.894531 128.34375 Z M 109.925781 85.269531 L 92.386719 102.761719 L 109.867188 120.25 C 113.292969 115.285156 115.300781 109.261719 115.300781 102.761719 C 115.300781 96.261719 113.351562 90.234375 109.925781 85.269531 Z M 66.875 77.234375 L 84.355469 94.726562 L 101.835938 77.234375 C 96.875 73.808594 90.851562 71.800781 84.355469 71.800781 C 77.859375 71.738281 71.835938 73.808594 66.875 77.234375 Z M 53.347656 102.761719 C 53.347656 109.261719 55.355469 115.285156 58.78125 120.25 L 76.265625 102.761719 L 58.839844 85.269531 C 55.414062 90.234375 53.347656 96.261719 53.347656 102.761719 Z M 53.347656 102.761719 " fill-opacity="1" fill-rule="nonzero"/></g></svg>