<svg xmlns="http://www.w3.org/2000/svg" xmlns:xlink="http://www.w3.org/1999/xlink" width="500" zoomAndPan="magnify" viewBox="0 0 375 374.999991" height="500" preserveAspectRatio="xMidYMid meet" version="1.0"><defs><clipPath id="id1"><path d="M 44.316406 37.5 L 330.816406 37.5 L 330.816406 337.5 L 44.316406 337.5 Z M 44.316406 37.5 " clip-rule="nonzero"/></clipPath><clipPath id="id2"><path d="M 44.316406 118 L 264 118 L 264 337.5 L 44.316406 337.5 Z M 44.316406 118 " clip-rule="nonzero"/></clipPath><clipPath id="id3"><path d="M 148 89 L 330.816406 89 L 330.816406 234 L 148 234 Z M 148 89 " clip-rule="nonzero"/></clipPath><clipPath id="id4"><path d="M 254 37.5 L 330.816406 37.5 L 330.816406 114 L 254 114 Z M 254 37.5 " clip-rule="nonzero"/></clipPath></defs><g clip-path="url(#id1)"><path fill="#cb3333" d="M 330.617188 75.78125 L 292.378906 75.78125 L 292.378906 37.5 L 254.140625 75.71875 L 254.140625 89.761719 L 254.082031 114.058594 L 254.082031 120.121094 L 227.246094 146.941406 C 207.859375 129.421875 182.105469 118.738281 153.953125 118.738281 C 93.621094 118.738281 44.519531 167.820312 44.519531 228.121094 C 44.519531 288.421875 93.5625 337.5 153.890625 337.5 C 214.222656 337.5 263.324219 288.421875 263.324219 228.121094 C 263.324219 199.980469 252.640625 174.300781 235.113281 154.921875 L 262.003906 128.039062 L 292.320312 128.039062 L 330.617188 89.761719 L 316.632812 89.761719 Z M 252.101562 228.121094 C 252.101562 282.238281 208.039062 326.28125 153.890625 326.28125 C 99.746094 326.28125 55.683594 282.238281 55.683594 228.121094 C 55.683594 174 99.746094 129.960938 153.890625 129.960938 C 178.984375 129.960938 201.914062 139.5 219.265625 154.921875 L 208.820312 165.359375 C 194.171875 152.519531 174.902344 144.71875 153.890625 144.71875 C 107.910156 144.78125 70.511719 182.160156 70.511719 228.121094 C 70.511719 274.078125 107.910156 311.519531 153.953125 311.519531 C 199.996094 311.519531 237.394531 274.140625 237.394531 228.121094 C 237.394531 207.121094 229.589844 187.980469 216.800781 173.28125 L 227.246094 162.839844 C 242.675781 180.300781 252.101562 203.101562 252.101562 228.121094 Z M 150.050781 232.019531 C 151.128906 233.101562 152.570312 233.640625 154.011719 233.640625 C 155.390625 233.640625 156.894531 233.101562 157.972656 232.019531 L 171.601562 218.398438 C 173.222656 221.28125 174.121094 224.640625 174.121094 228.121094 C 174.121094 239.28125 165.058594 248.398438 153.890625 248.398438 C 142.726562 248.398438 133.601562 239.339844 133.601562 228.121094 C 133.601562 216.898438 142.667969 207.839844 153.890625 207.839844 C 157.433594 207.839844 160.855469 208.800781 163.738281 210.421875 L 150.050781 224.101562 C 147.890625 226.261719 147.890625 229.800781 150.050781 232.019531 Z M 171.839844 202.320312 C 166.738281 198.78125 160.433594 196.621094 153.890625 196.621094 C 136.542969 196.679688 122.4375 210.78125 122.4375 228.121094 C 122.4375 245.460938 136.542969 259.558594 153.890625 259.558594 C 171.238281 259.558594 185.347656 245.460938 185.347656 228.121094 C 185.347656 221.460938 183.246094 215.28125 179.703125 210.300781 L 190.269531 199.738281 C 196.390625 207.601562 200.113281 217.441406 200.113281 228.121094 C 200.113281 253.621094 179.34375 274.320312 153.890625 274.320312 C 128.4375 274.320312 107.667969 253.558594 107.667969 228.121094 C 107.667969 202.679688 128.4375 181.921875 153.890625 181.921875 C 164.636719 181.921875 174.542969 185.699219 182.40625 191.761719 Z M 190.390625 183.78125 C 180.484375 175.621094 167.699219 170.699219 153.890625 170.699219 C 122.257812 170.699219 96.445312 196.5 96.445312 228.121094 C 96.445312 259.800781 122.195312 285.539062 153.890625 285.539062 C 185.585938 285.539062 211.339844 259.800781 211.339844 228.121094 C 211.339844 214.320312 206.417969 201.601562 198.253906 191.761719 L 198.3125 191.699219 L 208.820312 181.261719 C 219.625 193.859375 226.105469 210.238281 226.105469 228.058594 C 226.105469 267.839844 193.691406 300.238281 153.890625 300.238281 C 114.09375 300.238281 81.734375 267.960938 81.734375 228.121094 C 81.734375 188.28125 114.152344 155.941406 153.953125 155.941406 C 171.839844 155.941406 188.289062 162.539062 200.894531 173.28125 L 200.835938 173.339844 Z M 190.390625 183.78125 " fill-opacity="1" fill-rule="nonzero"/></g><g clip-path="url(#id2)"><path fill="#cb3333" d="M 227.1875 162.839844 L 235.113281 154.921875 C 252.640625 174.300781 263.324219 199.980469 263.324219 228.121094 C 263.324219 288.421875 214.222656 337.5 153.890625 337.5 C 93.5625 337.5 44.519531 288.421875 44.519531 228.121094 C 44.519531 167.820312 93.621094 118.738281 153.953125 118.738281 C 182.105469 118.738281 207.796875 129.421875 227.1875 146.941406 L 219.203125 154.921875 C 201.855469 139.441406 178.984375 129.960938 153.890625 129.960938 C 99.746094 129.960938 55.683594 174 55.683594 228.121094 C 55.683594 282.238281 99.746094 326.28125 153.890625 326.28125 C 208.039062 326.28125 252.101562 282.238281 252.101562 228.121094 C 252.101562 203.101562 242.675781 180.238281 227.1875 162.839844 Z M 70.511719 228.121094 C 70.511719 274.078125 107.910156 311.519531 153.953125 311.519531 C 199.996094 311.519531 237.394531 274.140625 237.394531 228.121094 C 237.394531 207.121094 229.589844 187.980469 216.742188 173.28125 L 208.820312 181.199219 C 219.625 193.800781 226.167969 210.179688 226.167969 228.058594 C 226.167969 267.839844 193.75 300.238281 153.953125 300.238281 C 114.152344 300.238281 81.734375 267.960938 81.734375 228.121094 C 81.734375 188.28125 114.152344 155.941406 153.953125 155.941406 C 171.839844 155.941406 188.226562 162.480469 200.835938 173.28125 L 208.757812 165.359375 C 194.113281 152.519531 174.902344 144.71875 153.890625 144.71875 C 107.910156 144.78125 70.511719 182.160156 70.511719 228.121094 Z M 96.445312 228.121094 C 96.445312 259.800781 122.195312 285.539062 153.890625 285.539062 C 185.585938 285.539062 211.339844 259.800781 211.339844 228.121094 C 211.339844 214.320312 206.417969 201.601562 198.253906 191.699219 L 190.269531 199.679688 C 196.390625 207.539062 200.113281 217.378906 200.113281 228.121094 C 200.113281 253.621094 179.34375 274.320312 153.890625 274.320312 C 128.4375 274.320312 107.667969 253.558594 107.667969 228.121094 C 107.667969 202.679688 128.4375 181.921875 153.890625 181.921875 C 164.636719 181.921875 174.480469 185.640625 182.34375 191.761719 L 190.328125 183.78125 C 180.425781 175.621094 167.699219 170.699219 153.890625 170.699219 C 122.257812 170.699219 96.445312 196.5 96.445312 228.121094 Z M 122.4375 228.121094 C 122.4375 245.460938 136.542969 259.558594 153.890625 259.558594 C 171.238281 259.558594 185.347656 245.460938 185.347656 228.121094 C 185.347656 221.460938 183.246094 215.28125 179.703125 210.238281 L 171.601562 218.339844 C 173.222656 221.21875 174.121094 224.578125 174.121094 228.121094 C 174.121094 239.28125 165.058594 248.398438 153.890625 248.398438 C 142.726562 248.398438 133.601562 239.339844 133.601562 228.121094 C 133.601562 216.898438 142.667969 207.839844 153.890625 207.839844 C 157.433594 207.839844 160.796875 208.738281 163.675781 210.359375 L 171.78125 202.261719 C 166.679688 198.71875 160.496094 196.621094 153.890625 196.621094 C 136.542969 196.679688 122.4375 210.78125 122.4375 228.121094 Z M 122.4375 228.121094 " fill-opacity="1" fill-rule="nonzero"/></g><g clip-path="url(#id3)"><path fill="#333333" d="M 316.632812 89.761719 L 330.617188 89.761719 L 292.320312 128.039062 L 262.003906 128.039062 L 235.113281 154.980469 L 227.1875 162.898438 L 216.742188 173.339844 L 208.820312 181.261719 L 198.3125 191.699219 L 190.328125 199.679688 L 179.824219 210.179688 L 171.71875 218.28125 L 157.972656 232.019531 C 156.894531 233.101562 155.390625 233.640625 154.011719 233.640625 C 152.570312 233.640625 151.128906 233.101562 150.050781 232.019531 C 147.890625 229.800781 147.890625 226.261719 150.050781 224.101562 L 163.796875 210.359375 L 171.902344 202.261719 L 182.40625 191.761719 L 190.390625 183.78125 L 200.835938 173.339844 L 208.757812 165.421875 L 219.203125 154.980469 L 227.128906 147.058594 L 254.082031 120.121094 L 254.082031 114.058594 L 292.320312 114.058594 Z M 316.632812 89.761719 " fill-opacity="1" fill-rule="nonzero"/></g><path fill="#ffcb00" d="M 125.136719 81.238281 L 114.332031 81.238281 L 125.136719 62.519531 L 135.941406 81.238281 Z M 143.144531 81.238281 L 164.757812 81.238281 L 153.953125 62.519531 L 148.550781 71.878906 Z M 171.960938 81.238281 L 193.570312 81.238281 L 182.765625 62.519531 Z M 150.050781 59.519531 L 139.246094 40.800781 L 133.84375 50.160156 L 128.4375 59.519531 Z M 178.863281 59.519531 L 168.058594 40.800781 L 157.253906 59.519531 Z M 178.863281 59.519531 " fill-opacity="1" fill-rule="nonzero"/><g clip-path="url(#id4)"><path fill="#ff6500" d="M 254.140625 89.761719 L 254.140625 114 L 254.140625 75.71875 L 292.378906 37.5 L 292.378906 75.78125 L 330.617188 75.78125 L 316.570312 89.820312 L 292.320312 89.820312 L 292.320312 51.480469 Z M 254.140625 89.761719 " fill-opacity="1" fill-rule="nonzero"/></g><path fill="#ffcb00" d="M 292.378906 114 L 254.140625 114 L 254.140625 89.761719 L 292.378906 51.480469 L 292.378906 89.761719 L 316.632812 89.761719 Z M 292.378906 114 " fill-opacity="1" fill-rule="nonzero"/></svg>