<?xml version="1.0" encoding="UTF-8" standalone="no"?>
<svg
   width="600"
   zoomAndPan="magnify"
   viewBox="0 0 450 449.99999"
   height="600"
   preserveAspectRatio="xMidYMid"
   version="1.0"
   id="svg236"
   sodipodi:docname="HeroImage.svg"
   inkscape:version="1.2 (dc2aeda, 2022-05-15)"
   xmlns:inkscape="http://www.inkscape.org/namespaces/inkscape"
   xmlns:sodipodi="http://sodipodi.sourceforge.net/DTD/sodipodi-0.dtd"
   xmlns="http://www.w3.org/2000/svg"
   xmlns:svg="http://www.w3.org/2000/svg">
  <defs
     id="defs240" />
  <sodipodi:namedview
     id="namedview238"
     pagecolor="#ffffff"
     bordercolor="#000000"
     borderopacity="0.25"
     inkscape:showpageshadow="2"
     inkscape:pageopacity="0.0"
     inkscape:pagecheckerboard="0"
     inkscape:deskcolor="#d1d1d1"
     showgrid="false"
     inkscape:zoom="0.43911794"
     inkscape:cx="130.94432"
     inkscape:cy="217.48144"
     inkscape:window-width="1536"
     inkscape:window-height="821"
     inkscape:window-x="0"
     inkscape:window-y="25"
     inkscape:window-maximized="0"
     inkscape:current-layer="svg236" />
  <rect
     x="0"
     width="450"
     fill="#ffffff"
     y="0"
     height="450"
     fill-opacity="1"
     id="rect2" />
  <rect
     x="0"
     width="450"
     fill="#ffffff"
     y="0"
     height="450"
     fill-opacity="1"
     id="rect4" />
  <rect
     x="0"
     width="450"
     fill="#ffffff"
     y="0"
     height="450"
     fill-opacity="1"
     id="rect6" />
  <rect
     x="0"
     width="450"
     fill="#ffffff"
     y="0"
     height="450"
     fill-opacity="1"
     id="rect8" />
  <path
     fill="#b8b8b8"
     d="M 412.07846,180.37772 C 395.08961,94.37184 309.62567,44.48233 237.64781,37.851773 178.01794,32.359066 100.14675,54.071295 72.618472,106.53648 55.312609,139.5341 76.10563,150.00749 61.949121,224.76935 49.6947,289.47158 28.241664,312.63715 41.836901,345.61927 c 11.116289,26.96184 37.095873,39.71093 53.694953,47.86206 65.450456,32.12872 164.873436,28.35831 236.451106,-30.2461 16.7498,-13.71624 99.30345,-85.56625 80.0955,-182.85751"
     fill-opacity="1"
     fill-rule="nonzero"
     id="path10"
     style="fill:#5fbcd3;stroke-width:1.32723" />
  <path
     fill="#ffffff"
     d="m 206.11719,122.42188 -6.53125,5.45312 c 0,0 -2.10938,12.64844 -8.40625,14.66797 -6.29688,2.01562 -14.47657,-5.59766 -14.47657,-5.59766 l -2.41406,10.01953 c 0,0 8.25,8.42579 17.88672,4.83594 9.63281,-3.58594 9.30469,-19.09375 9.30469,-19.09375 -0.004,0.0117 2.40234,-0.24609 2.82422,-2.72656 0.35937,-2.10938 -0.19141,-3.19922 -0.19141,-3.19922 0,0 3.15234,-2.60547 2.00391,-4.35937"
     fill-opacity="1"
     fill-rule="nonzero"
     id="path12" />
  <path
     fill="#333333"
     d="m 174.85937,146.79688 c 1.30469,1.21875 8.7461,7.64843 17.13672,4.52343 9.17578,-3.41797 8.97266,-18.45312 8.96875,-18.60156 -0.004,-0.21875 0.12891,-0.41406 0.33203,-0.49219 0.0508,-0.0195 0.10547,-0.0312 0.16407,-0.0352 0.14453,-0.0156 1.99609,-0.28515 2.33593,-2.29687 0.32032,-1.88672 -0.14062,-2.875 -0.14453,-2.88281 -0.10156,-0.21485 -0.0469,-0.47657 0.13282,-0.625 0.60546,-0.50391 2.03125,-1.95704 2.0625,-3.07032 l -5.78516,4.83203 c -0.30469,1.67188 -2.5625,12.91016 -8.72656,14.88282 -5.52735,1.76953 -12.23047,-3.35547 -14.33203,-5.13281 z m 12.44922,6.40234 c -7.53125,0 -13.3164,-5.80469 -13.38672,-5.875 -0.125,-0.12891 -0.17578,-0.30859 -0.13281,-0.48438 l 2.41406,-10.01562 c 0.043,-0.17578 0.17579,-0.32031 0.35157,-0.37109 0.17578,-0.0508 0.36718,-0.008 0.5,0.11718 0.0781,0.0742 8.03515,7.37891 13.96875,5.48047 5.92578,-1.89844 8.03515,-14.13672 8.05468,-14.26172 0.0195,-0.12109 0.0859,-0.23047 0.17969,-0.30859 l 6.53125,-5.45313 c 0.11328,-0.0977 0.26172,-0.13671 0.40625,-0.11718 0.14453,0.0234 0.27344,0.10547 0.35547,0.22656 1.16406,1.78125 -1.02734,4.05469 -1.83203,4.80078 0.16016,0.52734 0.35937,1.58203 0.0937,3.12891 -0.33203,1.94922 -1.73438,2.70312 -2.53906,2.98047 -0.10157,0.0352 -0.19141,0.0625 -0.27735,0.0859 -0.0195,2.6289 -0.58593,15.77734 -9.64062,19.15234 -1.73438,0.64453 -3.4336,0.91406 -5.04688,0.91406"
     fill-opacity="1"
     fill-rule="nonzero"
     id="path14" />
  <path
     fill="#333333"
     d="m 201.01562,132.01563 c -0.17968,0 -0.35937,-0.0977 -0.44921,-0.26954 -0.13672,-0.25 -0.043,-0.5625 0.20312,-0.69921 0.0117,-0.004 0.99609,-0.5625 0.94531,-1.39063 -0.0391,-0.61719 0.14453,-1.25391 0.53907,-1.84766 0.0937,-0.13671 0.15234,-0.28515 0.1875,-0.4414 l -1.54688,1.01172 c -0.23828,0.15625 -0.55469,0.0898 -0.71094,-0.14844 -0.15625,-0.23828 -0.0898,-0.55859 0.14844,-0.71484 l 2.27344,-1.49219 c 0.14453,-0.0898 0.32422,-0.10547 0.48047,-0.043 0.15625,0.0664 0.27343,0.20703 0.30468,0.375 l 0.0586,0.28515 c 0.125,0.60938 0.004,1.22657 -0.33594,1.74219 -0.1875,0.27735 -0.40234,0.71485 -0.37109,1.20703 0.0937,1.48828 -1.41407,2.32813 -1.47657,2.36328 -0.082,0.043 -0.16406,0.0625 -0.25,0.0625"
     fill-opacity="1"
     fill-rule="nonzero"
     id="path16" />
  <path
     fill="#ffcc33"
     d="m 157.80469,122.95703 c 3.19922,1.10156 4.36719,1.82422 14.26562,8.57031 2.41797,1.65235 3.40625,6.61329 2.14844,9.25782 -2.27344,1.86718 -13.24219,11.23437 -12.63281,24.33203 0.0859,1.85937 0.41797,4.04297 1.24219,6.46093 -1.42579,0.16797 -3.51563,0.23829 -5.85157,-0.41406 -3.8789,-1.08984 -4.86328,-3.17187 -7.54687,-4.7539 -7.09766,-4.17969 -14.53906,1.97265 -18.42578,-1.83594 -1.03907,-1.01953 -2.04297,-2.95703 -1.55469,-7.04297 0.79687,-3.14062 1.96875,-6.67578 3.73047,-10.40234 4.76562,-10.09766 11.54297,-16.73438 16.29297,-20.58985 1.46484,-1.23828 4.55859,-4.8789 8.33203,-3.58203"
     fill-opacity="1"
     fill-rule="nonzero"
     id="path18" />
  <path
     fill="#ffcc33"
     d="m 183.23828,140.51172 c 0,0 -6.20312,-4.98047 -10.55859,-8.47266 l -7.33594,17.375 13.44141,2.70313 4.45312,-11.60547"
     fill-opacity="1"
     fill-rule="nonzero"
     id="path20" />
  <path
     fill="#ffffff"
     d="m 161.10938,150.71094 c -0.008,-0.008 -0.0156,-0.0156 -0.0234,-0.0234 -1.14453,-0.89453 -2.63672,-1.47266 -4.08203,-1.50391 l -7.71485,-0.17578 c -0.12109,-0.0117 -0.23437,-0.0547 -0.32812,-0.13281 l -6.03906,-4.90234 c -1.07422,-0.87891 -1.16797,-2.49219 -0.19532,-3.48438 l 5.45313,-5.55469 c 0.13281,-0.13671 0.1914,-0.32812 0.16015,-0.51171 l -1.85546,-10.55469 c -0.082,-0.46875 -0.66016,-0.64844 -0.98829,-0.3086 -2.45703,2.50782 -13.74218,11.01954 -13.96875,18.19141 -0.23828,7.60547 14.56641,11.51172 14.56641,11.51172 0,0 0.0391,0.0469 0.12891,0.0586 0,0 2,0.28125 3.14843,0.46485 1.10547,0.17578 2.9375,-0.60938 3.85938,-1.05469 0.30859,-0.14844 0.67969,0 0.80078,0.31641 l 0.60156,1.58984 c 0.42188,1.12109 1.6836,1.67187 2.79688,1.23437 0.74609,-0.29687 1.42187,-0.61718 1.50781,-0.79296 0.43359,-0.87891 0.40625,-1.34766 -0.13281,-2.14063 -0.0195,-0.0273 -0.0391,-0.0586 -0.0508,-0.0898 l -0.10157,-0.23047 c -0.22265,-0.5 0.30079,-0.9961 0.78907,-0.75781 0.53515,0.25781 0.85547,0.96484 1.17187,1.64843 0.10156,0.22266 0.16797,0.54688 0.26953,0.69922 0.42969,0.64844 1.36328,-0.41797 1.38282,-0.86719 0.0352,-0.73437 -0.58985,-2.16406 -1.15625,-2.6289"
     fill-opacity="1"
     fill-rule="nonzero"
     id="path22" />
  <path
     fill="#333333"
     d="m 153.48438,152.15625 c 0.14062,0 0.27734,0.0273 0.41015,0.082 0.28516,0.10938 0.50781,0.33985 0.61719,0.62891 l 0.60156,1.58594 c 0.15625,0.41015 0.46094,0.73437 0.86328,0.91015 0.40235,0.17969 0.85157,0.1875 1.26563,0.0273 0.78125,-0.3086 1.14844,-0.51172 1.26172,-0.59766 0.32031,-0.67188 0.29687,-0.94531 -0.125,-1.5625 -0.0391,-0.0586 -0.0742,-0.11719 -0.0977,-0.17578 l -0.10156,-0.22656 c -0.1875,-0.42969 -0.0937,-0.91407 0.24219,-1.23829 0.33593,-0.32421 0.82421,-0.39843 1.24609,-0.19531 0.69141,0.33985 1.05078,1.11719 1.39844,1.8711 0.0703,0.15234 0.11328,0.28906 0.15234,0.40625 0.0195,0.0625 0.0469,0.14453 0.0703,0.19921 0.17188,-0.0937 0.4375,-0.42187 0.46485,-0.5664 0.0234,-0.5586 -0.53907,-1.83594 -0.97266,-2.19922 l 0.32813,-0.39844 -0.33594,0.39453 c -1.10156,-0.86328 -2.47656,-1.375 -3.78125,-1.40625 l -7.71485,-0.17578 c -0.25,-0.0156 -0.46484,-0.0977 -0.64062,-0.24219 l -6.03906,-4.90625 c -0.625,-0.50781 -1.01172,-1.26171 -1.05469,-2.07031 -0.0469,-0.80469 0.25391,-1.59765 0.81641,-2.17187 l 5.45312,-5.5586 c 0.0156,-0.0156 0.0234,-0.0352 0.0195,-0.0586 l -1.85547,-10.55469 c 0,-0.0117 -0.008,-0.043 -0.0469,-0.0547 -0.0391,-0.0156 -0.0586,0.008 -0.0664,0.0156 -0.44922,0.46094 -1.16406,1.09375 -2.07031,1.89844 -4.04297,3.59375 -11.57031,10.27735 -11.75,15.94922 -0.22266,7.11328 14.03516,10.96094 14.17969,11 l 0.17578,0.0625 c 0.42969,0.0586 2.0664,0.28906 3.05469,0.44921 0.6875,0.10547 2.01562,-0.26953 3.55468,-1.01171 0.15235,-0.0703 0.3125,-0.10937 0.47657,-0.10937 z m 3.15234,4.37891 c -0.36719,0 -0.73047,-0.0742 -1.07813,-0.23047 -0.65625,-0.28906 -1.15625,-0.81641 -1.41015,-1.48438 l -0.60156,-1.58984 c -0.004,-0.0156 -0.0195,-0.0312 -0.0352,-0.0352 -0.0195,-0.0117 -0.0391,-0.008 -0.0586,0 -1.25,0.60547 -2.99219,1.28516 -4.16407,1.09766 -1.1289,-0.17969 -3.11718,-0.45703 -3.14062,-0.46094 -0.11328,-0.0156 -0.20703,-0.0547 -0.28125,-0.0977 -1.38281,-0.37891 -15.09375,-4.3125 -14.85157,-12 0.19141,-6.11329 7.9336,-12.99219 12.09376,-16.6875 0.89062,-0.78907 1.58984,-1.41407 2.01562,-1.84766 0.28906,-0.29688 0.71484,-0.40234 1.10938,-0.28125 0.39453,0.12109 0.68359,0.44922 0.75781,0.85937 l 1.85547,10.5586 c 0.0586,0.34765 -0.0508,0.70312 -0.29688,0.95703 l -5.45703,5.55859 c -0.36719,0.375 -0.55078,0.86719 -0.52344,1.39453 0.0312,0.52344 0.26953,0.99219 0.67969,1.32422 l 6.03516,4.90625 c 0.0117,0.0117 0.0234,0.0156 0.0391,0.0156 l 7.69141,0.17578 c 1.51953,0.0352 3.12109,0.62109 4.39062,1.61719 l 0.0312,0.0273 c 0.68359,0.5625 1.38672,2.16016 1.34375,3.04688 -0.0234,0.52343 -0.63281,1.34765 -1.27734,1.52734 -0.41797,0.11719 -0.8086,-0.0312 -1.05078,-0.39063 -0.0977,-0.14843 -0.15625,-0.32812 -0.21094,-0.5039 -0.0312,-0.0937 -0.0625,-0.1875 -0.0977,-0.26953 -0.28515,-0.61719 -0.5664,-1.22657 -0.92969,-1.40235 -0.0117,-0.004 -0.043,-0.0195 -0.0781,0.0117 -0.0352,0.0352 -0.0195,0.0625 -0.0156,0.0781 l 0.10157,0.23047 c 0.64843,0.94921 0.6914,1.62109 0.17578,2.66406 -0.0742,0.16015 -0.20703,0.42578 -1.77735,1.04297 -0.32031,0.1289 -0.65234,0.1875 -0.98437,0.1875"
     fill-opacity="1"
     fill-rule="nonzero"
     id="path24" />
  <path
     fill="#ffcc33"
     d="m 136.89063,128.29297 c 0,0 4.48437,-3.21094 7.44531,-5.35156 6.57031,-4.7461 14.63672,0.33593 14.63672,0.33593 l -12.41407,15.64454 -9.66796,-10.62891"
     fill-opacity="1"
     fill-rule="nonzero"
     id="path26" />
  <path
     fill="#333333"
     d="m 167.10156,120.27734 c -0.95703,-0.0937 -1.53906,-0.38281 -1.91797,-0.65625 -1.375,-0.98046 -1.5664,-2.70703 -1.60546,-3.05468 -0.19922,-1.78125 0.57812,-4.02344 2.10156,-4.66407 1.09375,-0.46484 1.625,0.30469 2.87109,-0.19921 1.41406,-0.57422 1.17969,-1.91407 2.45313,-2.39454 1.46875,-0.55078 3.18359,0.64454 3.49218,0.85938 1.0586,0.73437 0.84766,1.35547 1.89453,1.97656 1.07032,0.63672 1.54297,0.19141 2.51172,0.79688 0.76953,0.47656 1.6836,1.50781 1.625,2.71093 -0.0742,1.51172 -1.64062,2.57032 -2.87109,2.875 -1.48438,0.36719 -1.80078,-0.53125 -3.53125,-0.5664 -3,-0.0547 -3.95313,2.60937 -7.02344,2.3164"
     fill-opacity="1"
     fill-rule="nonzero"
     id="path28" />
  <path
     fill="#ffffff"
     d="m 168.03516,127.77734 1.71484,-4.03515 c 0.14062,0.0664 1.34375,0.5625 1.50781,0.57812 1.31641,0.13282 2.625,-2.5625 2.625,-2.5625 l 0.97656,-0.3164 0.6836,-4.77735 c -2.69531,0.36328 -2.41797,-1.48047 -4.6211,-1.85937 -2.20703,-0.375 -2.48437,2.17187 -2.48437,2.17187 0,0 -1.03516,-1.53125 -1.59766,0.043 -0.42968,1.19141 0.29297,1.73438 0.82032,2.00782 l -4.88672,5.69531 c 0,0 -3.54297,-1.03906 -4.21875,-1.25 0.77734,0.4375 4.57031,6.0039 12.05859,7.25 l -2.57812,-2.94531"
     fill-opacity="1"
     fill-rule="nonzero"
     id="path30" />
  <path
     fill="#333333"
     d="m 160.375,124.55469 c 1.60547,1.625 4.50781,4.21094 8.83203,5.33984 l -1.55859,-1.78125 c -0.13282,-0.14844 -0.16407,-0.35547 -0.0898,-0.53906 l 1.71875,-4.03516 c 0.0547,-0.1289 0.16016,-0.23047 0.29297,-0.27734 0.13281,-0.0508 0.27735,-0.0469 0.40625,0.0156 0.13281,0.0664 1.13672,0.47266 1.35156,0.53125 0.008,0 0.0195,0 0.0273,0 0.65234,0 1.60937,-1.34375 2.0664,-2.27734 0.0586,-0.125 0.16797,-0.22266 0.30469,-0.26563 l 0.67188,-0.21484 0.54297,-3.82422 c -0.0117,0 -0.0273,0 -0.0391,0 -1.26953,0 -1.875,-0.53906 -2.41797,-1.02735 -0.45312,-0.40234 -0.84375,-0.75 -1.64843,-0.88671 -0.46094,-0.0781 -0.82813,-0.008 -1.125,0.21093 -0.63672,0.48047 -0.76172,1.4961 -0.76172,1.50782 -0.0234,0.21484 -0.17969,0.39062 -0.39063,0.4414 -0.21093,0.0508 -0.42578,-0.0312 -0.54687,-0.21094 -0.15625,-0.22656 -0.40235,-0.42968 -0.49219,-0.4414 0.004,0.008 -0.0898,0.0781 -0.19531,0.37109 -0.23438,0.64844 -0.0664,1.04688 0.57031,1.37891 0.14063,0.0703 0.23828,0.20312 0.26953,0.35937 0.0312,0.15235 -0.0117,0.3125 -0.11328,0.4336 l -4.88672,5.6914 c -0.13281,0.15625 -0.34375,0.21875 -0.53515,0.16016 -0.082,-0.0234 -1.1836,-0.34375 -2.25391,-0.66016 z m 10.24219,6.68359 c -0.0312,0 -0.0586,0 -0.0859,-0.008 -6.21484,-1.03516 -9.96094,-4.96875 -11.55859,-6.64453 -0.26953,-0.28516 -0.57813,-0.60547 -0.67188,-0.66797 -0.22265,-0.13672 -0.3125,-0.42187 -0.20703,-0.65625 0.10938,-0.23437 0.36719,-0.35937 0.61719,-0.28125 0.54297,0.17188 3,0.89453 3.88672,1.15234 l 4.28906,-5 c -0.89063,-0.75 -0.73438,-1.72265 -0.53125,-2.28515 0.22656,-0.63672 0.57422,-0.99219 1.03906,-1.04688 0.28516,-0.0391 0.54688,0.0547 0.76953,0.19141 0.17188,-0.43359 0.45313,-0.93359 0.92188,-1.28516 0.52734,-0.39843 1.17578,-0.53515 1.92187,-0.41015 1.09766,0.1875 1.6875,0.71093 2.16016,1.13672 0.58594,0.51953 1.00781,0.89453 2.30859,0.72265 0.16016,-0.0234 0.32031,0.0312 0.4336,0.14844 0.11328,0.11328 0.16406,0.27344 0.14062,0.43359 l -0.67969,4.77344 c -0.0273,0.19531 -0.16406,0.35938 -0.35156,0.41797 l -0.77344,0.25 c -0.39843,0.76953 -1.59765,2.80078 -3.03906,2.65234 -0.18359,-0.0195 -0.75781,-0.24218 -1.17969,-0.41797 l -1.39062,3.26563 2.36719,2.70312 c 0.14062,0.16407 0.16796,0.39844 0.0625,0.58985 -0.0937,0.16797 -0.26563,0.26562 -0.44922,0.26562"
     fill-opacity="1"
     fill-rule="nonzero"
     id="path32" />
  <path
     fill="#333333"
     d="m 169.75,124.25781 c -0.0703,0 -0.14063,-0.0156 -0.21094,-0.0469 -2.14844,-0.97656 -2.10937,-3.04297 -2.10547,-3.1289 0.008,-0.28516 0.25,-0.51954 0.52735,-0.4961 0.28515,0.008 0.50781,0.24219 0.5,0.52735 0,0.0664 0,1.47656 1.5039,2.16015 0.25782,0.11719 0.375,0.42188 0.25782,0.6836 -0.0898,0.1875 -0.27344,0.30078 -0.47266,0.30078"
     fill-opacity="1"
     fill-rule="nonzero"
     id="path34" />
  <path
     fill="#ffffff"
     d="m 237.54297,311.91797 c -0.39844,-8.67188 -7.33203,-15.76953 -15.98828,-16.35938 -5.46094,-0.37109 -10.41797,1.80469 -13.8125,5.45703 -0.86328,0.92969 -2.07813,1.45313 -3.34766,1.45313 -2.53125,0 -4.58594,-2.05469 -4.58594,-4.58984 v -0.85157 h -0.0273 v -34.84375 h -34.83594 v 0.0234 h -0.85156 c -2.53516,0 -4.58984,2.05469 -4.58984,4.58594 0,1.27344 0.52343,2.48437 1.45312,3.34765 3.65235,3.39454 5.82813,8.35547 5.45703,13.81641 -0.58984,8.66016 -7.6875,15.59375 -16.35937,15.99219 -9.875,0.45312 -18.02344,-7.41797 -18.02344,-17.19531 0,-4.98438 2.11719,-9.46875 5.5,-12.61329 0.92969,-0.86328 1.45313,-2.07421 1.45313,-3.34765 0,-2.53125 -2.05469,-4.58594 -4.58985,-4.58594 h -0.85156 v -0.0234 H 98.707031 v 88.78907 c 0,6.79687 5.507809,12.30468 12.300779,12.30468 h 88.77344 V 328.4375 h 0.0273 v -0.85156 c 0,-2.53907 2.05469,-4.58985 4.58594,-4.58985 1.26953,0 2.48438,0.51953 3.34766,1.44922 3.14453,3.38281 7.6289,5.5 12.60937,5.5 9.77344,0 17.64453,-8.15234 17.19141,-18.02734"
     fill-opacity="1"
     fill-rule="nonzero"
     id="path36" />
  <path
     fill="#333333"
     d="m 199.78125,363.79297 h -88.77344 c -7.0664,0 -12.816404,-5.75 -12.816404,-12.82031 v -88.78907 c 0,-0.28515 0.230469,-0.51562 0.515625,-0.51562 0.285157,0 0.515625,0.23047 0.515625,0.51562 v 88.78907 c 0,6.5 5.285154,11.78906 11.785154,11.78906 h 88.25781 V 328.4375 c 0,-0.28516 0.23047,-0.51953 0.51563,-0.51953 0.28516,0 0.51562,0.23437 0.51562,0.51953 v 34.83984 c 0,0.28516 -0.23046,0.51563 -0.51562,0.51563"
     fill-opacity="1"
     fill-rule="nonzero"
     id="path38" />
  <path
     fill="#ffffff"
     d="m 252.01553,261.63237 c -1.98828,-0.50782 -3.45703,-2.30079 -3.45703,-4.44532 0,-1.26953 0.52344,-2.48437 1.44922,-3.34765 3.65625,-3.39453 5.82812,-8.35157 5.46093,-13.8125 -0.58984,-8.66016 -7.6914,-15.59375 -16.35937,-15.99219 -9.875,-0.45313 -18.02344,7.41797 -18.02344,17.19531 0,4.98047 2.11719,9.46875 5.5,12.60938 0.92578,0.86718 1.44922,2.07812 1.44922,3.34765 0,2.14453 -1.46875,3.9375 -3.45703,4.44532 h -36.81641 v 34.83984 h 0.0274 v 0.85156 c 0,2.53516 2.05468,4.58985 4.58593,4.58985 1.26954,0 2.48438,-0.52344 3.34766,-1.45313 3.39453,-3.65234 8.35156,-5.82812 13.8125,-5.45703 8.65625,0.58984 15.58984,7.6875 15.98828,16.35937 0.45313,9.87891 -7.41797,18.02735 -17.1914,18.02735 -4.98438,0 -9.46875,-2.11719 -12.60938,-5.5 -0.86328,-0.92969 -2.07812,-1.44922 -3.34766,-1.44922 -2.53125,0 -4.58593,2.05469 -4.58593,4.58984 v 0.85157 h -0.0274 v 34.83984 h 88.76953 c 6.79688,0 12.30079,-5.50781 12.30079,-12.30078 v -88.78906 h -36.81641"
     fill-opacity="1"
     fill-rule="nonzero"
     id="path40" />
  <path
     fill="#333333"
     d="m 200.29687,362.76172 h 88.25391 c 6.5,0 11.78906,-5.28906 11.78906,-11.78906 v -88.27344 h -36.30468 c -0.043,0 -0.0859,-0.004 -0.12891,-0.0156 -2.26172,-0.57812 -3.84375,-2.60547 -3.84375,-4.9414 0,-1.41016 0.58984,-2.76953 1.61719,-3.72266 3.70703,-3.44922 5.63672,-8.33203 5.29297,-13.40234 -0.57422,-8.45313 -7.39454,-15.125 -15.86719,-15.51563 -4.61328,-0.20703 -8.98828,1.42578 -12.31641,4.60547 -3.33203,3.18359 -5.16797,7.47266 -5.16797,12.07813 0,4.625 1.94532,9.08203 5.33594,12.23437 1.02734,0.95313 1.61328,2.3125 1.61328,3.72266 0,2.33593 -1.58203,4.36328 -3.84375,4.9414 -0.0391,0.0117 -0.0859,0.0156 -0.125,0.0156 h -36.30469 v 34.16797 c 0.0156,0.0508 0.0273,0.10156 0.0273,0.16015 v 0.85157 c 0,2.24609 1.82812,4.07421 4.07031,4.07421 1.12891,0 2.21094,-0.46875 2.96875,-1.28906 3.66016,-3.9375 8.84375,-5.98828 14.22656,-5.62109 8.97266,0.61328 16.05469,7.85547 16.46875,16.85156 0.22266,4.89844 -1.51172,9.54297 -4.88672,13.07813 -3.3789,3.53906 -7.93359,5.48828 -12.82031,5.48828 -4.91015,0 -9.64453,-2.06641 -12.98828,-5.66407 -0.75781,-0.8164 -1.83984,-1.28515 -2.96875,-1.28515 -2.24219,0 -4.07031,1.82422 -4.07031,4.07031 v 0.85547 c 0,0.0547 -0.0117,0.11328 -0.0273,0.16406 z m 88.25391,1.03125 h -88.76953 c -0.28516,0 -0.51563,-0.23047 -0.51563,-0.51563 V 328.4375 c 0,-0.0625 0.0117,-0.11719 0.0273,-0.17188 v -0.68359 c 0,-2.8125 2.28906,-5.10156 5.10156,-5.10156 1.41406,0 2.76953,0.58984 3.72266,1.61328 3.15234,3.39062 7.60937,5.33594 12.23437,5.33594 4.60547,0 8.89453,-1.83594 12.07422,-5.16797 3.17969,-3.32813 4.81641,-7.70313 4.60156,-12.32031 -0.39062,-8.47266 -7.05859,-15.29688 -15.51172,-15.86719 -5.0664,-0.34375 -9.94921,1.58203 -13.39453,5.29297 -0.95703,1.02734 -2.3125,1.61718 -3.72656,1.61718 -2.8125,0 -5.10156,-2.29296 -5.10156,-5.10546 v -0.69141 c -0.0156,-0.0508 -0.0273,-0.10547 -0.0273,-0.16016 v -34.84375 c 0,-0.28515 0.23047,-0.51562 0.51563,-0.51562 h 36.75391 c 1.77343,-0.48047 3.00781,-2.08594 3.00781,-3.92578 0,-1.125 -0.47266,-2.20703 -1.28906,-2.96875 -3.59766,-3.34375 -5.66407,-8.07813 -5.66407,-12.98828 0,-4.89063 1.94922,-9.44532 5.48828,-12.82422 3.53125,-3.375 8.17969,-5.11328 13.07422,-4.88672 8.9961,0.41406 16.23828,7.49609 16.84766,16.47265 0.36719,5.38282 -1.68359,10.56641 -5.61719,14.22657 -0.82031,0.76172 -1.28906,1.84375 -1.28906,2.96875 0,1.83984 1.23047,3.44531 3.00781,3.92578 h 36.75391 c 0.28515,0 0.51562,0.23047 0.51562,0.51562 v 88.78907 c 0,7.07031 -5.7539,12.82031 -12.82031,12.82031"
     fill-opacity="1"
     fill-rule="nonzero"
     id="path42" />
  <path
     fill="#ffffff"
     d="m 178.11719,194.59375 c 5.45703,-0.37109 10.41797,1.80078 13.8125,5.45703 0.85937,0.92969 2.07422,1.44922 3.34375,1.44922 2.25,0 4.11328,-1.61719 4.50781,-3.74609 v -36.53516 h -88.77344 c -6.79297,0 -12.300779,5.50781 -12.300779,12.30469 v 88.78906 h 34.835939 v 0.0195 h 0.85156 c 2.53516,0 4.58985,2.05859 4.58985,4.58984 0,1.26954 -0.52344,2.48438 -1.45313,3.34766 -3.38281,3.14453 -5.5,7.62891 -5.5,12.60938 0,9.77734 8.15234,17.65234 18.02344,17.19531 8.67187,-0.39844 15.76953,-7.33203 16.35937,-15.99219 0.3711,-5.45703 -1.80468,-10.41797 -5.45703,-13.8125 -0.92969,-0.86328 -1.45312,-2.07812 -1.45312,-3.34766 0,-2.53125 2.05468,-4.58984 4.58984,-4.58984 h 0.85156 v -0.0195 h 34.83594 v -36.53516 c -0.39453,-2.13281 -2.25781,-3.74609 -4.50781,-3.74609 -1.26953,0 -2.48438,0.51953 -3.34375,1.44922 -3.14453,3.38281 -7.62891,5.5 -12.60938,5.5 -9.77734,0 -17.64843,-8.14844 -17.19531,-18.02735 0.39844,-8.67187 7.33203,-15.77343 15.99219,-16.35937"
     fill-opacity="1"
     fill-rule="nonzero"
     id="path44" />
  <path
     fill="#333333"
     d="m 143.07422,299.47266 c -0.0625,0 -0.125,-0.0117 -0.18359,-0.0352 -6.80469,-2.61328 -11.3711,-9.26563 -11.3711,-16.55469 0,-4.91015 2.0625,-9.64453 5.66016,-12.99219 0.82031,-0.75781 1.28906,-1.83984 1.28906,-2.96484 0,-2.25 -1.82812,-4.07422 -4.07422,-4.07422 h -0.85156 c -0.0508,0 -0.10156,-0.008 -0.14844,-0.0234 H 98.707031 c -0.285156,0 -0.515625,-0.23046 -0.515625,-0.51562 v -88.78906 c 0,-7.07032 5.750004,-12.82031 12.816404,-12.82031 h 88.77344 c 0.28516,0 0.51562,0.23046 0.51562,0.51562 v 36.53516 c 0,0.0312 -0.004,0.0625 -0.0117,0.0937 -0.44532,2.41796 -2.55469,4.16796 -5.01172,4.16796 -1.41407,0 -2.76953,-0.58593 -3.72266,-1.61328 -3.44922,-3.71093 -8.33203,-5.63672 -13.39844,-5.29687 -8.45312,0.57422 -15.12109,7.39844 -15.51171,15.87109 -0.21094,4.61719 1.42187,8.99219 4.60156,12.32031 3.18359,3.33204 7.47265,5.16797 12.07422,5.16797 4.625,0 9.08203,-1.94531 12.23437,-5.33593 0.95313,-1.02735 2.30859,-1.61329 3.72266,-1.61329 2.45703,0 4.5664,1.75391 5.01172,4.16797 0.008,0.0312 0.0117,0.0625 0.0117,0.0937 v 27 c 0,0.28516 -0.23046,0.51563 -0.51562,0.51563 -0.28516,0 -0.51563,-0.23047 -0.51563,-0.51563 v -26.94922 c -0.375,-1.90625 -2.04687,-3.28515 -3.99218,-3.28515 -1.12891,0 -2.20703,0.47265 -2.96875,1.28906 -3.34375,3.60156 -8.07813,5.66406 -12.98828,5.66406 -4.88672,0 -9.44141,-1.94922 -12.82032,-5.48828 -3.375,-3.53125 -5.10937,-8.17969 -4.88281,-13.07812 0.41016,-8.9961 7.49219,-16.23828 16.46875,-16.85157 5.37891,-0.36718 10.5625,1.6836 14.22266,5.6211 0.76172,0.82031 1.83984,1.28906 2.96875,1.28906 1.94531,0 3.61718,-1.37891 3.99218,-3.28516 v -35.96864 h -88.25781 c -6.5,0 -11.785154,5.28906 -11.785154,11.78906 v 88.27343 h 34.320314 c 0.0508,0 0.10156,0.008 0.14844,0.0234 h 0.70312 c 2.8125,0 5.10156,2.28906 5.10156,5.10547 0,1.41016 -0.58593,2.76563 -1.61328,3.72266 -3.39062,3.14843 -5.33594,7.60547 -5.33594,12.23437 0,6.86328 4.30469,13.13281 10.71094,15.59375 0.26563,0.10156 0.39844,0.39844 0.29688,0.66406 -0.0781,0.20704 -0.27344,0.33204 -0.48047,0.33204"
     fill-opacity="1"
     fill-rule="nonzero"
     id="path46" />
  <path
     fill="#ffcc33"
     d="m 332.87294,85.313634 -82.87891,-31.8125 -13.08594,34.109375 c -1.13281,1.851563 -3.45312,2.691407 -5.55078,1.886719 -1.1875,-0.457031 -2.13281,-1.378906 -2.60547,-2.554688 -1.85937,-4.625 -5.71093,-8.4375 -10.9414,-10.042968 -8.29297,-2.554688 -17.3086,1.589844 -20.78906,9.542968 -3.95704,9.058594 0.47265,19.48828 9.59765,22.98828 4.64844,1.78516 9.59375,1.41797 13.74219,-0.61328 1.13672,-0.55859 2.45703,-0.60937 3.64062,-0.15625 2.09766,0.80469 3.26172,2.98047 2.86719,5.11719 l -13.08594,34.10547 34.375,13.19531 c 2.03516,0.23828 4.05079,-0.91016 4.82032,-2.91016 0.45312,-1.18359 0.39843,-2.5039 -0.16016,-3.64453 -2.03125,-4.14453 -2.39844,-9.09375 -0.61328,-13.74609 3.50391,-9.125 13.92969,-13.55469 22.98437,-9.59375 7.95313,3.47656 12.09766,12.49609 9.54297,20.79297 -1.60547,5.23047 -5.41797,9.08203 -10.04297,10.9414 -1.17187,0.47266 -2.09765,1.42188 -2.55078,2.60547 -0.76953,2 -0.0391,4.20313 1.63282,5.38281 l 34.375,13.19532 31.80468,-82.89453 c 2.4336,-6.347661 -0.73437,-13.460942 -7.07812,-15.894536"
     fill-opacity="1"
     fill-rule="nonzero"
     id="path48" />
  <path
     fill="#333333"
     d="m 257.66899,171.20634 33.83203,12.98828 31.62109,-82.41797 c 2.32813,-6.066407 -0.71484,-12.902344 -6.78516,-15.226563 l -82.39843,-31.625 -12.89844,33.628906 c -0.0117,0.02734 -0.0273,0.05859 -0.043,0.08203 -1.28516,2.097657 -3.87891,2.980469 -6.17578,2.097657 -1.31641,-0.503907 -2.37109,-1.539063 -2.89453,-2.84375 -1.89063,-4.695313 -5.75781,-8.25 -10.61328,-9.742188 -8.09766,-2.492187 -16.76953,1.488281 -20.16797,9.257813 -1.84766,4.234375 -1.89063,8.902344 -0.11719,13.152345 1.77734,4.25391 5.125,7.5 9.42578,9.15234 4.31641,1.65625 9.17578,1.4375 13.33203,-0.59765 1.25782,-0.61719 2.73438,-0.67969 4.05469,-0.17578 2.29297,0.88281 3.63281,3.27343 3.1875,5.6914 -0.008,0.0312 -0.0156,0.0625 -0.0273,0.0898 l -12.90235,33.62891 33.83203,12.98047 c 1.82813,0.19141 3.5586,-0.86719 4.21485,-2.58594 0.40625,-1.05078 0.35547,-2.23047 -0.13672,-3.23047 -2.16016,-4.41406 -2.39063,-9.57421 -0.63672,-14.16015 1.75391,-4.56251 5.20313,-8.11719 9.71484,-10.00391 4.51172,-1.88672 9.46875,-1.84375 13.96094,0.12109 8.25,3.60938 12.47656,12.81641 9.83203,21.41797 -1.58984,5.15235 -5.35547,9.26172 -10.34375,11.26954 -1.03906,0.41406 -1.86328,1.25781 -2.26562,2.30859 -0.66016,1.71875 -0.0859,3.66016 1.39844,4.74219 z m 34.1289,14.16797 c -0.0625,0 -0.12109,-0.0117 -0.18359,-0.0352 l -34.375,-13.19141 c -0.0391,-0.0156 -0.0781,-0.0351 -0.11328,-0.0625 -1.90625,-1.34765 -2.65235,-3.8125 -1.82032,-5.98828 0.50782,-1.32031 1.54297,-2.375 2.84375,-2.89844 4.69922,-1.89062 8.25,-5.76171 9.74219,-10.61718 2.49219,-8.09766 -1.48828,-16.76953 -9.25781,-20.16797 -4.23047,-1.85156 -8.90234,-1.89453 -13.14844,-0.11719 -4.25,1.78125 -7.5,5.125 -9.14844,9.42578 -1.65625,4.31641 -1.4375,9.17969 0.59766,13.33594 0.61719,1.25391 0.67969,2.73437 0.17188,4.05469 -0.83594,2.17578 -3.03516,3.50781 -5.35547,3.23437 -0.0469,-0.004 -0.0859,-0.0156 -0.125,-0.0312 l -34.375,-13.1914 c -0.26563,-0.10157 -0.39844,-0.40235 -0.29688,-0.66407 l 13.06641,-34.0664 c 0.33203,-1.91407 -0.73438,-3.79688 -2.55078,-4.4961 -1.05078,-0.40234 -2.23047,-0.35156 -3.23047,0.13672 -4.41406,2.16406 -9.57031,2.39453 -14.15625,0.63672 -4.5625,-1.75391 -8.11719,-5.20312 -10.00391,-9.71484 -1.88672,-4.511722 -1.83984,-9.468753 0.125,-13.96094 3.60547,-8.253907 12.8125,-12.480469 21.41016,-9.832032 5.15625,1.585938 9.26172,5.355469 11.26562,10.34375 0.41797,1.035156 1.26172,1.859375 2.3125,2.265625 1.81641,0.695313 3.8711,0.01172 4.90235,-1.636719 l 13.0664,-34.0625 c 0.0508,-0.125 0.14844,-0.230468 0.27344,-0.285156 0.125,-0.05469 0.26563,-0.05859 0.39453,-0.01172 l 82.87891,31.808593 c 6.59765,2.535157 9.90625,9.964844 7.375,16.562499 l -31.80469,82.89453 c -0.0469,0.12891 -0.14453,0.23047 -0.26953,0.28516 -0.0664,0.0312 -0.13672,0.0469 -0.21094,0.0469"
     fill-opacity="1"
     fill-rule="nonzero"
     id="path50" />
  <path
     fill="#ffffff"
     d="m 318.99609,264.82422 -0.20312,7.21875 h -3.42188 l -1.14843,-7.89063 4.77343,0.67188"
     fill-opacity="1"
     fill-rule="nonzero"
     id="path52" />
  <path
     fill="#333333"
     d="m 315.81641,271.53125 h 2.47656 l 0.17578,-6.25781 -3.63672,-0.51563 z m 2.97656,1.03125 h -3.42188 c -0.25781,0 -0.47265,-0.19141 -0.51172,-0.44141 l -1.14843,-7.89453 c -0.0234,-0.16015 0.0312,-0.32031 0.14453,-0.4375 0.11328,-0.11328 0.27344,-0.16797 0.4375,-0.14844 l 4.77734,0.67579 c 0.25781,0.0352 0.44922,0.26171 0.44141,0.52343 l -0.20313,7.21875 c -0.008,0.28125 -0.23437,0.50391 -0.51562,0.50391"
     fill-opacity="1"
     fill-rule="nonzero"
     id="path54" />
  <path
     fill="#333333"
     d="m 301.33203,277.96484 h 17.75391 c 0.92578,0 1.63672,-0.73437 1.5039,-1.65234 -0.30859,-2.07422 -0.84765,-5.40234 -1.3125,-6.77734 -0.69531,-2.05469 -2.9414,1.23828 -2.9414,1.23828 l -1.31641,-1.09766 c 0,0 -11.70312,3.35156 -14.39062,6.96094 -0.4336,0.58203 -0.0234,1.32812 0.70312,1.32812"
     fill-opacity="1"
     fill-rule="nonzero"
     id="path56" />
  <path
     fill="#ffffff"
     d="m 319.16016,277.17969 h -16.7461 c -0.28515,0 -0.51562,-0.23047 -0.51562,-0.51563 0,-0.28125 0.23047,-0.51172 0.51562,-0.51172 h 16.7461 c 0.28515,0 0.51562,0.23047 0.51562,0.51172 0,0.28516 -0.23047,0.51563 -0.51562,0.51563"
     fill-opacity="1"
     fill-rule="nonzero"
     id="path58" />
  <path
     fill="#ffffff"
     d="m 344.37109,257.15234 6.51172,8.24219 3.44141,-2.58203 -5.57031,-9.09375 -4.38282,3.43359"
     fill-opacity="1"
     fill-rule="nonzero"
     id="path60" />
  <path
     fill="#333333"
     d="m 345.09375,257.23828 5.87891,7.44531 2.66796,-2 -5.02343,-8.20312 z m 5.78516,8.67188 c -0.15235,0 -0.30079,-0.0664 -0.40625,-0.19532 l -6.50782,-8.24609 c -0.082,-0.10547 -0.12109,-0.24219 -0.10547,-0.37891 0.0156,-0.13672 0.0859,-0.26172 0.19532,-0.34375 l 4.3789,-3.43359 c 0.11719,-0.0898 0.26563,-0.12891 0.41016,-0.10156 0.14453,0.0273 0.26953,0.11328 0.34766,0.23828 l 5.57031,9.09375 c 0.14062,0.22656 0.082,0.52344 -0.12891,0.68359 l -3.4414,2.58203 c -0.0977,0.0703 -0.20313,0.10157 -0.3125,0.10157"
     fill-opacity="1"
     fill-rule="nonzero"
     id="path62" />
  <path
     fill="#333333"
     d="m 344,277.4375 c 2.98047,-1.39063 10.65625,-5.29297 14.99219,-10.39063 0.39062,-0.45703 0.40234,-1.125 0.0391,-1.60937 -0.92188,-1.22656 -2.79688,-3.50391 -4.70703,-4.5625 0,0 -3.88672,1.35156 -2.84766,3.1875 l -1.41406,-0.23047 c 0,0 -6.26563,7.03906 -7.1875,12.76953 -0.0977,0.625 0.54687,1.10547 1.125,0.83594"
     fill-opacity="1"
     fill-rule="nonzero"
     id="path64" />
  <path
     fill="#ffffff"
     d="m 344.14453,276.47266 c -0.17969,0 -0.35937,-0.0937 -0.44922,-0.26563 -0.14062,-0.24609 -0.0508,-0.5625 0.19922,-0.69922 0.0898,-0.0508 9.10938,-5.10156 13.84766,-10.14062 0.19531,-0.20703 0.51953,-0.21875 0.72656,-0.0234 0.20703,0.19531 0.21875,0.51953 0.0234,0.73047 -4.84766,5.15625 -13.72266,10.125 -14.09766,10.33594 -0.0781,0.043 -0.16406,0.0625 -0.25,0.0625"
     fill-opacity="1"
     fill-rule="nonzero"
     id="path66" />
  <path
     fill="#ffcc33"
     d="m 303.41406,203.73047 c 0,0 3.1875,21.57031 5.01172,32.91406 1.82422,11.34375 5.74219,29.62109 5.74219,29.62109 h 5.6289 c 0,0 1.85938,-12.41015 2.30079,-19.28906 0.44921,-6.8789 -1.82032,-8.82422 -2.26954,-14.35937 -0.45312,-5.53516 2.35938,-23.4336 2.35938,-23.4336 l -8.34375,-8.16015 -10.42969,2.70703"
     fill-opacity="1"
     fill-rule="nonzero"
     id="path68" />
  <path
     fill="#ffcc33"
     d="m 317.55469,208.5 c 0,0 9.98828,28.75 27.375,51.01172 l 5.89453,-4.65625 c 0,0 -4.67969,-15.16797 -5.83985,-17.11719 -1.16015,-1.95312 -4.26171,-6.99609 -5.19531,-9.64844 -3.01953,-8.59375 -6.22265,-24.99609 -6.22265,-24.99609 L 317.55469,208.5"
     fill-opacity="1"
     fill-rule="nonzero"
     id="path70" />
  <path
     fill="#ffffff"
     d="m 306.47656,164.71484 c -0.78515,-1.0039 -0.53125,-1.54687 -0.35937,-1.5664 0.15625,-0.0195 1.12109,-0.35938 1.4375,-0.57422 0.75,-0.51172 1.07031,-1.34375 0.72265,-1.85547 -0.1875,-0.27734 -0.53125,-0.40234 -0.92578,-0.38281 0.25391,-1.23047 -0.0312,-1.86719 -0.22265,-2.75391 -0.66797,-3.07031 -3.3125,-2.76562 -4.3711,-1.82031 -0.92187,0.82031 -0.95703,1.62109 -2.82422,2.29687 -0.17578,0.0664 -0.20312,0.32032 -0.13281,0.4961 l 0.34766,0.98828 c 0.082,0.19922 -0.0117,0.64844 -0.10157,0.83984 -0.28125,0.60547 -0.91796,1.86328 -0.8164,2.13282 0.20312,0.52734 2.17578,1.51953 2.17578,1.51953 l 3.75,6.8164 c -0.29297,1.14063 -1.03516,1.71485 -1.57422,1.98828 -0.32812,0.16797 0.51172,0.91797 0.80078,1.15235 0.54688,0.4414 0,0 2.28516,1.13281 3.02734,1.5 6.96094,-2.23047 6.96094,-2.23047 0,0 -0.94922,-0.25781 -7.15235,-8.17969"
     fill-opacity="1"
     fill-rule="nonzero"
     id="path72" />
  <path
     fill="#333333"
     d="m 313.76172,172.39844 z m 0,0 c 0.004,0 0.004,0 0.004,0 0,0 0,0 -0.004,0 z m 0.004,0 z m 0,0 z m 0,0 c 0.004,0 0.004,0 0.004,0 0,0 0,0 -0.004,0 z m 0.004,0 z m 0,0 z m 0.004,0 z m 0,0 z m -9.59766,0.69531 c 0.12891,0.14062 0.32031,0.32422 0.53125,0.49609 0.21484,0.17188 0.21484,0.17188 0.35547,0.23047 0.22266,0.0859 0.67578,0.26563 1.83594,0.84375 2.10937,1.04297 4.83593,-0.875 5.91015,-1.74609 -1.1875,-1.0586 -3.55078,-3.81641 -6.73437,-7.88672 -0.78125,-1 -0.69531,-1.64453 -0.57422,-1.94141 0.10937,-0.2539 0.3125,-0.42578 0.55469,-0.45312 0.15625,-0.0312 0.98047,-0.33203 1.20703,-0.48828 0.27344,-0.1836 0.48828,-0.4375 0.58594,-0.69141 0.0312,-0.0859 0.10156,-0.30469 0.004,-0.44922 -0.10937,-0.16015 -0.36719,-0.16015 -0.47656,-0.16015 -0.16016,0.0117 -0.3125,-0.0547 -0.41406,-0.17969 -0.10157,-0.11719 -0.14453,-0.28125 -0.11328,-0.4375 0.1875,-0.89063 0.0547,-1.40234 -0.10938,-2.05469 -0.0352,-0.15625 -0.0781,-0.3164 -0.11328,-0.48437 -0.23047,-1.05469 -0.73438,-1.73828 -1.46484,-1.97266 -0.76172,-0.24609 -1.60938,0.0273 -2.05469,0.42188 -0.25391,0.22656 -0.4336,0.45312 -0.625,0.69531 -0.44141,0.55469 -0.89844,1.1289 -2.16406,1.6289 l 0.32031,0.91016 c 0.15234,0.375 -0.0156,0.98828 -0.125,1.22656 -0.043,0.0937 -0.0937,0.20313 -0.15235,0.32422 -0.16796,0.35156 -0.53906,1.14453 -0.61328,1.44922 0.20703,0.23438 1.04688,0.77734 1.89063,1.19922 0.0937,0.0469 0.17187,0.12109 0.22265,0.21094 l 3.75,6.82031 c 0.0625,0.11328 0.0781,0.25 0.0469,0.375 -0.27734,1.08594 -0.90625,1.73047 -1.48047,2.11328 z m 4.06641,2.90234 c -0.60547,0 -1.21485,-0.12109 -1.80078,-0.41015 -1.125,-0.55469 -1.55079,-0.72657 -1.75782,-0.8086 -0.28125,-0.11328 -0.32422,-0.14062 -0.62109,-0.38672 -1.12891,-0.91015 -1.08203,-1.35546 -1.06641,-1.5 0.0234,-0.22265 0.15235,-0.41015 0.35547,-0.51171 0.42969,-0.21875 0.98047,-0.64844 1.25,-1.46485 l -3.57031,-6.49218 c -0.8125,-0.41797 -2.05469,-1.13672 -2.27734,-1.71875 -0.14454,-0.375 0.043,-0.88282 0.67578,-2.21875 0.0547,-0.11719 0.10547,-0.22266 0.14843,-0.31641 0.0508,-0.10938 0.0977,-0.37109 0.082,-0.45703 l -0.34375,-0.98828 c -0.0937,-0.22266 -0.0937,-0.50782 0.008,-0.73828 0.0898,-0.19532 0.24219,-0.33985 0.43359,-0.41016 1.14844,-0.41797 1.50391,-0.86328 1.91797,-1.37891 0.19531,-0.25 0.42188,-0.53515 0.74219,-0.82031 0.64453,-0.57812 1.875,-1.02344 3.0625,-0.63672 0.76172,0.25 1.75781,0.92188 2.15234,2.73047 0.0352,0.16016 0.0703,0.30859 0.10938,0.45703 0.14062,0.56641 0.28515,1.14844 0.20312,1.96485 0.31641,0.0937 0.57813,0.27734 0.75391,0.53515 0.26953,0.38672 0.30859,0.90235 0.10937,1.40625 -0.17578,0.44922 -0.51562,0.86328 -0.96484,1.16797 -0.28906,0.19922 -0.97266,0.46484 -1.38281,0.58984 0.0195,0.13672 0.10547,0.39844 0.42578,0.80469 5.53515,7.07422 6.82812,7.95703 6.94531,8.02734 0.14453,0.0625 0.25781,0.19141 0.29688,0.34766 0.043,0.17969 -0.0117,0.37109 -0.14454,0.49609 -0.14062,0.13672 -2.91406,2.73047 -5.74218,2.73047"
     fill-opacity="1"
     fill-rule="nonzero"
     id="path74" />
  <path
     fill="#333333"
     d="m 303.6875,156.70313 c 0,0 -2.92188,-2.96485 -1.76563,-4.92188 0.10157,-0.17187 0.41407,-0.71484 1,-0.89453 1.20313,-0.37891 2.52735,1.04687 2.82422,1.35937 2.57422,2.73438 4.45703,3.19922 5.51953,4.59766 0.38672,0.50781 0.77735,1.40625 0.51563,3.07813 -0.38281,1.16796 -0.95313,1.73828 -1.40234,2.04687 -0.92188,0.62891 -1.6211,0.32813 -2.30469,1.02734 -0.77344,0.78516 -0.46875,1.7461 -0.96094,1.96094 -0.38672,0.16797 -1.14453,-0.16015 -2.76562,-2.21484 1.2539,-1.09766 1.94531,-2.25 1.6289,-2.90625 -0.0898,-0.1875 -0.36719,-0.51953 -0.6914,-0.5586 -0.4375,-0.0469 -0.77735,0.37891 -0.77735,0.37891 l -0.82031,-2.95312"
     fill-opacity="1"
     fill-rule="nonzero"
     id="path76" />
  <path
     fill="#ffffff"
     d="m 328.30469,131.41797 c -1.3125,-1.4375 -1.8125,-3.4375 -1.32813,-5.32031 l 1.2461,-4.83594 0.39843,0.23047 c 2.0625,0.99609 1.79688,9.35937 1.79688,9.35937 l -2.11328,0.56641"
     fill-opacity="1"
     fill-rule="nonzero"
     id="path78" />
  <path
     fill="#333333"
     d="m 328.55078,122.05859 -1.07422,4.16797 c -0.41797,1.6211 -0.043,3.32032 1.00391,4.60938 l 1.42969,-0.38281 c 0.0625,-3.16407 -0.3086,-7.51563 -1.35938,-8.39454 z m -0.24609,9.8711 c -0.14453,0 -0.28125,-0.0586 -0.38282,-0.16797 -1.43359,-1.56641 -1.97656,-3.73438 -1.44531,-5.79297 l 1.25,-4.83594 c 0.0391,-0.15625 0.15235,-0.28515 0.30078,-0.34765 0.14844,-0.0625 0.32032,-0.0508 0.45703,0.0312 l 0.38282,0.22265 c 2.22656,1.1211 2.10937,8.38282 2.0625,9.83203 -0.008,0.22657 -0.16407,0.42188 -0.38282,0.48047 l -2.11328,0.5625 c -0.0391,0.0117 -0.0859,0.0156 -0.1289,0.0156"
     fill-opacity="1"
     fill-rule="nonzero"
     id="path80" />
  <path
     fill="#ffffff"
     d="m 296.53516,187.07422 2.5,18.95703 c 0,0 6.51953,1.00781 13.17187,0.44922 0,0 -8.44141,-19.96875 -15.67187,-19.40625"
     fill-opacity="1"
     fill-rule="nonzero"
     id="path82" />
  <path
     fill="#333333"
     d="m 299.49219,205.57422 c 1.42187,0.1914 6.59375,0.80859 11.94922,0.44922 -1.48438,-3.31641 -8.3711,-17.98828 -14.32032,-18.4336 z m 8.51172,1.58984 c -4.94532,0 -8.9961,-0.61719 -9.04688,-0.625 -0.23047,-0.0352 -0.40234,-0.21484 -0.43359,-0.4414 l -2.5,-18.95704 c -0.0195,-0.13671 0.0234,-0.28125 0.10937,-0.39062 0.0899,-0.10938 0.21875,-0.17969 0.35938,-0.1875 7.51562,-0.58984 15.83984,18.88672 16.1875,19.71875 0.0625,0.15234 0.0508,0.32812 -0.0352,0.46875 -0.082,0.14062 -0.23047,0.23437 -0.39844,0.24609 -1.4375,0.11719 -2.875,0.16797 -4.24218,0.16797"
     fill-opacity="1"
     fill-rule="nonzero"
     id="path84" />
  <path
     fill="#ffffff"
     d="m 269.60156,167.73437 c 0,0 -0.0352,-1.98046 -2.03515,-3.78124 -2,-1.80079 -5.55469,-5.98438 -5.96485,-3.49219 -0.41406,2.49219 0.875,5.5 3.53125,6.1875 1.3086,0.33593 1.60547,3.74609 1.60547,3.74609 l 2.86328,-2.66016"
     fill-opacity="1"
     fill-rule="nonzero"
     id="path86" />
  <path
     fill="#333333"
     d="m 262.31641,160.19922 c -0.0273,0 -0.0547,0.004 -0.082,0.0117 -0.0117,0.004 -0.082,0.0781 -0.125,0.33594 -0.36328,2.20703 0.73438,4.97656 3.15235,5.60156 1.13672,0.29297 1.64062,2.01953 1.85547,3.19531 l 1.94922,-1.81641 c -0.0742,-0.51953 -0.39844,-1.89062 -1.84375,-3.1914 -0.39454,-0.35547 -0.83985,-0.79297 -1.3125,-1.25391 -0.96485,-0.95312 -2.9336,-2.88281 -3.59375,-2.88281 z m 4.42187,10.71094 c -0.0625,0 -0.12109,-0.008 -0.18359,-0.0312 -0.1836,-0.0703 -0.3086,-0.24219 -0.32813,-0.4375 -0.11328,-1.27735 -0.60156,-3.13672 -1.22265,-3.29688 -2.98047,-0.76953 -4.35157,-4.11328 -3.91016,-6.76562 0.125,-0.76953 0.51562,-1.05078 0.82422,-1.14844 1.07812,-0.35156 2.5664,1.00391 4.71484,3.11328 0.46485,0.45703 0.90235,0.88672 1.27735,1.22656 2.14453,1.92969 2.20703,4.06641 2.20703,4.15625 0.004,0.14453 -0.0586,0.28516 -0.16407,0.38672 l -2.86328,2.66016 c -0.0937,0.0898 -0.22265,0.13672 -0.35156,0.13672"
     fill-opacity="1"
     fill-rule="nonzero"
     id="path88" />
  <path
     fill="#333333"
     d="m 269.32031,167.03125 c -1.39844,0.98437 -2.79297,1.96875 -4.1875,2.95312 5.25391,12.1836 11.5,16.39454 16.14453,18.01563 8,2.79297 12.96094,-1.48438 18.6875,2.50391 6.45703,4.49609 3.6211,14.35546 9.94532,22.26171 3.44531,4.3086 15.51171,2.82032 17.29687,2.80079 1.81641,-0.0156 12.14453,-0.11329 14.97266,-6.22657 0.99609,-2.15234 0.70703,-4.28125 0.5,-5.8125 -0.38282,-2.84375 -1.71094,-4.9414 -6.63672,-11.0625 -3.58985,-4.46484 -4.08594,-4.8125 -5.17969,-6.26562 -2.38672,-3.16406 -3.71094,-7.57813 -4.67969,-15.6875 2.3125,-3.375 3.9961,-9.41406 5.71875,-16.63672 2.53907,-10.66797 0.7461,-19.57813 -0.48437,-24.02734 -1.39453,0.38671 -2.78906,0.77343 -4.1836,1.16015 -0.44531,9.10547 -2.71484,16.64453 -4.57421,20.26953 -3.47266,6.77735 -8.51172,10.38282 -14.1211,16.02735 -2.23047,2.25 -3.11328,2.92187 -3.67969,3.33203 -3.40234,2.46094 -8.91015,4.97265 -17.375,4.47656 -9.75781,-0.57031 -16.19921,-6.21094 -18.16406,-8.08203"
     fill-opacity="1"
     fill-rule="nonzero"
     id="path90" />
  <path
     fill="#333333"
     d="m 260.70312,365.95703 c -0.0781,0 -0.15625,-0.0156 -0.22656,-0.0508 -0.25781,-0.125 -0.36328,-0.43359 -0.24219,-0.6875 l 40.58204,-84.30859 c 0.12109,-0.25391 0.43359,-0.36329 0.6875,-0.24219 0.25781,0.125 0.36328,0.43359 0.24218,0.6875 l -40.58203,84.30859 c -0.0898,0.1875 -0.27344,0.29297 -0.46094,0.29297"
     fill-opacity="1"
     fill-rule="nonzero"
     id="path92" />
  <path
     fill="#333333"
     d="m 289.20312,365.95703 c -0.0742,0 -0.15234,-0.0156 -0.22265,-0.0508 -0.25781,-0.125 -0.36328,-0.43359 -0.23828,-0.6875 l 40.57812,-84.30859 c 0.125,-0.25391 0.4336,-0.36329 0.6875,-0.24219 0.25781,0.125 0.36328,0.43359 0.24219,0.6875 l -40.58203,84.30859 c -0.0859,0.1875 -0.27344,0.29297 -0.46485,0.29297"
     fill-opacity="1"
     fill-rule="nonzero"
     id="path94" />
  <path
     fill="#ffcc33"
     d="m 353.45703,279.22656 c 0,1.04297 -0.84766,1.88672 -1.89062,1.88672 h -51.51172 c -1.04297,0 -1.89063,-0.84375 -1.89063,-1.88672 0,-1.04297 0.84766,-1.89062 1.89063,-1.89062 h 51.51172 c 1.04296,0 1.89062,0.84765 1.89062,1.89062"
     fill-opacity="1"
     fill-rule="nonzero"
     id="path96" />
  <path
     fill="#333333"
     d="m 300.05469,277.85156 c -0.75782,0 -1.375,0.61719 -1.375,1.375 0,0.75781 0.61718,1.375 1.375,1.375 h 51.51172 c 0.75781,0 1.375,-0.61719 1.375,-1.375 0,-0.75781 -0.61719,-1.375 -1.375,-1.375 z m 51.51172,3.77735 h -51.51172 c -1.32813,0 -2.40625,-1.07813 -2.40625,-2.40235 0,-1.32812 1.07812,-2.40625 2.40625,-2.40625 h 51.51172 c 1.32421,0 2.40234,1.07813 2.40234,2.40625 0,1.32422 -1.07813,2.40235 -2.40234,2.40235"
     fill-opacity="1"
     fill-rule="nonzero"
     id="path98" />
  <path
     fill="#333333"
     d="m 347.96094,365.95703 c -0.28516,0 -0.51563,-0.23047 -0.51563,-0.51562 v -84.15235 c 0,-0.28515 0.23047,-0.51953 0.51563,-0.51953 0.28515,0 0.51562,0.23438 0.51562,0.51953 v 84.15235 c 0,0.28515 -0.23047,0.51562 -0.51562,0.51562"
     fill-opacity="1"
     fill-rule="nonzero"
     id="path100" />
  <path
     fill="#333333"
     d="m 323.23437,365.95703 c -0.28515,0 -0.51562,-0.23047 -0.51562,-0.51562 v -60.10938 c 0,-0.28516 0.23047,-0.51562 0.51562,-0.51562 0.28516,0 0.51563,0.23046 0.51563,0.51562 v 60.10938 c 0,0.28515 -0.23047,0.51562 -0.51563,0.51562"
     fill-opacity="1"
     fill-rule="nonzero"
     id="path102" />
  <path
     fill="#333333"
     d="m 323.75,293.30859 h -27.81641 c -0.28515,0 -0.51562,-0.23047 -0.51562,-0.51562 0,-0.28516 0.23047,-0.51563 0.51562,-0.51563 H 323.75 c 0.28516,0 0.51562,0.23047 0.51562,0.51563 0,0.28515 -0.23046,0.51562 -0.51562,0.51562"
     fill-opacity="1"
     fill-rule="nonzero"
     id="path104" />
  <path
     fill="#333333"
     d="M 314.82031,312.19922 H 287 c -0.28516,0 -0.51172,-0.22656 -0.51172,-0.51172 0,-0.28516 0.22656,-0.51563 0.51172,-0.51563 h 27.82031 c 0.28125,0 0.51563,0.23047 0.51563,0.51563 0,0.28516 -0.23438,0.51172 -0.51563,0.51172"
     fill-opacity="1"
     fill-rule="nonzero"
     id="path106" />
  <path
     fill="#333333"
     d="m 306.23437,330.40625 h -27.8164 c -0.28516,0 -0.51563,-0.23047 -0.51563,-0.51563 0,-0.28515 0.23047,-0.51562 0.51563,-0.51562 h 27.8164 c 0.28907,0 0.51563,0.23047 0.51563,0.51562 0,0.28516 -0.22656,0.51563 -0.51563,0.51563"
     fill-opacity="1"
     fill-rule="nonzero"
     id="path108" />
  <path
     fill="#333333"
     d="m 297.30469,348.61328 h -27.81641 c -0.28516,0 -0.51562,-0.23437 -0.51562,-0.51953 0,-0.28125 0.23046,-0.51172 0.51562,-0.51172 h 27.81641 c 0.28515,0 0.51562,0.23047 0.51562,0.51172 0,0.28516 -0.23047,0.51953 -0.51562,0.51953"
     fill-opacity="1"
     fill-rule="nonzero"
     id="path110" />
  <path
     fill="#333333"
     d="m 111.15625,146.46094 c -0.0742,0 -0.14844,-0.0156 -0.21875,-0.0469 -0.25781,-0.12109 -0.37109,-0.42968 -0.25,-0.6875 3.53516,-7.54297 9.45703,-18.0625 17.58984,-25.35547 0.21485,-0.1875 0.53907,-0.17187 0.73047,0.043 0.1875,0.21094 0.17188,0.53516 -0.043,0.72657 -8,7.17578 -13.84765,17.5664 -17.34375,25.02343 -0.0898,0.1875 -0.27344,0.29688 -0.46484,0.29688"
     fill-opacity="1"
     fill-rule="nonzero"
     id="path112" />
  <path
     fill="#333333"
     d="m 108.72266,140.34375 c -0.082,0 -0.16016,-0.0195 -0.23828,-0.0547 -0.25,-0.13281 -0.35157,-0.44531 -0.21875,-0.69531 0.0898,-0.17578 9.16796,-17.67578 19.50781,-25.49609 0.22656,-0.17188 0.55078,-0.12891 0.72265,0.0977 0.16797,0.22656 0.125,0.55078 -0.10156,0.72265 -10.15234,7.67969 -19.125,24.97266 -19.21484,25.14844 -0.0898,0.17578 -0.26953,0.27734 -0.45703,0.27734"
     fill-opacity="1"
     fill-rule="nonzero"
     id="path114" />
  <path
     fill="#333333"
     d="m 160.24609,96.605469 c -0.13671,0 -0.27734,0.01172 -0.41796,0.03516 -1.27735,0.230469 -2.12891,1.457031 -1.90235,2.734375 0.23047,1.281246 1.45703,2.132816 2.73438,1.902346 0.61718,-0.10938 1.15625,-0.45313 1.51562,-0.97266 0.35938,-0.511717 0.4961,-1.140624 0.38672,-1.757811 -0.20312,-1.136719 -1.19922,-1.941406 -2.31641,-1.941406 z m -0.004,5.742191 c -1.60547,0 -3.03516,-1.15235 -3.33203,-2.789066 -0.32813,-1.839844 0.90234,-3.601563 2.73828,-3.929688 1.83594,-0.328125 3.59765,0.898438 3.92578,2.738282 0.16016,0.886718 -0.0352,1.785152 -0.55078,2.527342 -0.51953,0.74219 -1.29297,1.23828 -2.1836,1.39844 -0.19921,0.0391 -0.39843,0.0547 -0.59765,0.0547"
     fill-opacity="1"
     fill-rule="nonzero"
     id="path116" />
  <path
     fill="#333333"
     d="m 147.37109,104.98828 c -0.24218,0 -0.46093,-0.17578 -0.5039,-0.42578 l -0.46875,-2.60937 c -0.0508,-0.27735 0.13672,-0.54688 0.41797,-0.59766 0.27734,-0.0469 0.54687,0.13672 0.59765,0.41797 l 0.46485,2.60937 c 0.0508,0.27735 -0.13672,0.54688 -0.41407,0.59766 -0.0312,0.004 -0.0625,0.008 -0.0937,0.008"
     fill-opacity="1"
     fill-rule="nonzero"
     id="path118" />
  <path
     fill="#333333"
     d="m 148.46094,111.07031 c -0.2461,0 -0.46485,-0.17578 -0.50781,-0.42578 l -0.46485,-2.60937 c -0.0508,-0.28125 0.13281,-0.54688 0.41406,-0.59766 0.27735,-0.0508 0.54688,0.13672 0.59766,0.41406 l 0.46875,2.60938 c 0.0469,0.28125 -0.13672,0.54687 -0.41797,0.60156 -0.0312,0.004 -0.0625,0.008 -0.0898,0.008"
     fill-opacity="1"
     fill-rule="nonzero"
     id="path120" />
  <path
     fill="#333333"
     d="m 143.33984,107.5 c -0.24609,0 -0.46093,-0.17578 -0.50781,-0.42187 -0.0508,-0.28516 0.13672,-0.55079 0.41797,-0.59766 l 2.60938,-0.46875 c 0.27734,-0.0508 0.54687,0.13672 0.59765,0.41406 0.0469,0.28125 -0.13672,0.55078 -0.41797,0.59766 l -2.60937,0.46875 c -0.0312,0.004 -0.0625,0.008 -0.0898,0.008"
     fill-opacity="1"
     fill-rule="nonzero"
     id="path122" />
  <path
     fill="#333333"
     d="m 149.41797,106.41406 c -0.24609,0 -0.46484,-0.17578 -0.50781,-0.42578 -0.0508,-0.27734 0.13672,-0.54687 0.41797,-0.59765 l 2.60937,-0.46875 c 0.27734,-0.0469 0.54688,0.13671 0.59766,0.41796 0.0469,0.28125 -0.13672,0.54688 -0.41797,0.59766 l -2.60938,0.46875 c -0.0312,0.004 -0.0625,0.008 -0.0898,0.008"
     fill-opacity="1"
     fill-rule="nonzero"
     id="path124" />
  <path
     fill="#333333"
     d="m 336.71484,334.99609 c -0.24609,0 -0.46484,-0.17578 -0.50781,-0.42578 l -0.46484,-2.60937 c -0.0508,-0.28125 0.13672,-0.54688 0.41406,-0.59766 0.28125,-0.0508 0.55078,0.13672 0.59766,0.41797 l 0.46875,2.60937 c 0.0508,0.27735 -0.13672,0.54688 -0.41797,0.59766 -0.0274,0.004 -0.0586,0.008 -0.0899,0.008"
     fill-opacity="1"
     fill-rule="nonzero"
     id="path126" />
  <path
     fill="#333333"
     d="m 337.80469,341.07422 c -0.2461,0 -0.46485,-0.17578 -0.50782,-0.42578 l -0.46484,-2.60938 c -0.0508,-0.28125 0.13672,-0.54687 0.41406,-0.59765 0.27735,-0.0469 0.54688,0.13671 0.59766,0.41406 l 0.46484,2.61328 c 0.0547,0.27734 -0.13281,0.54687 -0.41406,0.59766 -0.0312,0.004 -0.0586,0.008 -0.0898,0.008"
     fill-opacity="1"
     fill-rule="nonzero"
     id="path128" />
  <path
     fill="#333333"
     d="m 332.68359,337.50781 c -0.24218,0 -0.46093,-0.17578 -0.50781,-0.42578 -0.0508,-0.28125 0.13672,-0.54687 0.41797,-0.59766 l 2.60937,-0.46875 c 0.27735,-0.0469 0.54688,0.13672 0.59766,0.41797 0.0508,0.28125 -0.13672,0.55078 -0.41797,0.59766 L 332.77344,337.5 c -0.0312,0.004 -0.0586,0.008 -0.0899,0.008"
     fill-opacity="1"
     fill-rule="nonzero"
     id="path130" />
  <path
     fill="#333333"
     d="m 338.76172,336.41797 c -0.2461,0 -0.46094,-0.17188 -0.50781,-0.42188 -0.0508,-0.28125 0.13671,-0.54687 0.41796,-0.60156 l 2.60938,-0.46484 c 0.27734,-0.0508 0.54687,0.13672 0.59375,0.41797 0.0508,0.27734 -0.13281,0.54687 -0.41406,0.59765 l -2.60547,0.46485 c -0.0352,0.008 -0.0664,0.008 -0.0937,0.008"
     fill-opacity="1"
     fill-rule="nonzero"
     id="path132" />
  <path
     fill="#333333"
     d="m 89.234375,220.35937 c -0.06641,0 -0.132813,-0.0117 -0.199219,-0.0391 -0.261718,-0.10937 -0.386718,-0.41015 -0.277344,-0.67578 l 1.019532,-2.44531 c 0.109375,-0.26172 0.410156,-0.38672 0.671875,-0.27735 0.265625,0.10938 0.386719,0.41016 0.277343,0.67188 l -1.015624,2.44922 c -0.08203,0.19531 -0.273438,0.3164 -0.476563,0.3164"
     fill-opacity="1"
     fill-rule="nonzero"
     id="path134" />
  <path
     fill="#333333"
     d="m 86.863281,226.0625 c -0.06641,0 -0.132812,-0.0117 -0.199219,-0.0391 -0.261718,-0.10938 -0.386718,-0.41407 -0.277343,-0.67578 l 1.019531,-2.44532 c 0.109375,-0.26172 0.410156,-0.38672 0.671875,-0.27734 0.261719,0.10547 0.386719,0.41016 0.277344,0.67187 l -1.015625,2.44922 c -0.08203,0.19532 -0.273438,0.31641 -0.476563,0.31641"
     fill-opacity="1"
     fill-rule="nonzero"
     id="path136" />
  <path
     fill="#333333"
     d="m 86.929688,221.30859 c -0.06641,0 -0.132813,-0.0117 -0.195313,-0.0391 l -2.449219,-1.01562 c -0.261718,-0.11329 -0.386718,-0.41407 -0.277344,-0.67579 0.109376,-0.26171 0.410157,-0.38671 0.675782,-0.27734 l 2.445312,1.01953 c 0.261719,0.10938 0.386719,0.41016 0.277344,0.67188 -0.08203,0.19922 -0.273438,0.3164 -0.476562,0.3164"
     fill-opacity="1"
     fill-rule="nonzero"
     id="path138" />
  <path
     fill="#333333"
     d="m 92.632812,223.68359 c -0.06641,0 -0.132812,-0.0156 -0.199218,-0.0391 L 89.988281,222.625 c -0.265625,-0.10938 -0.386719,-0.41016 -0.28125,-0.67578 0.113281,-0.26172 0.414063,-0.38672 0.675781,-0.27735 l 2.445313,1.01954 c 0.265625,0.10937 0.390625,0.41015 0.28125,0.67187 -0.08594,0.19922 -0.277344,0.32031 -0.476563,0.32031"
     fill-opacity="1"
     fill-rule="nonzero"
     id="path140" />
  <path
     fill="#333333"
     d="m 341.20312,315.95703 c -0.35546,0 -0.70312,0.12109 -0.98828,0.35156 -0.32422,0.26563 -0.53125,0.64453 -0.57422,1.0625 -0.043,0.41797 0.0781,0.82813 0.34375,1.15625 0.26563,0.32422 0.64063,0.53125 1.0625,0.57422 0.86329,0.0977 1.64063,-0.53906 1.73047,-1.40625 0.043,-0.41406 -0.082,-0.82422 -0.34375,-1.15234 -0.26562,-0.32813 -0.64062,-0.53125 -1.05859,-0.57422 -0.0586,-0.008 -0.11328,-0.0117 -0.17188,-0.0117 z m 0.008,4.18359 c -0.0899,0 -0.17969,-0.004 -0.27344,-0.0117 -0.69141,-0.0742 -1.31641,-0.41016 -1.75391,-0.95313 -0.4375,-0.54297 -0.64062,-1.21875 -0.5664,-1.91406 0.0742,-0.69141 0.41015,-1.3125 0.95312,-1.75 0.53906,-0.44141 1.21875,-0.64063 1.91016,-0.57031 0.6914,0.0742 1.3125,0.41015 1.75,0.95312 0.4414,0.53906 0.64453,1.21875 0.57031,1.91016 -0.14062,1.33984 -1.27344,2.33593 -2.58984,2.33593"
     fill-opacity="1"
     fill-rule="nonzero"
     id="path142" />
  <path
     fill="#333333"
     d="m 298.78516,93.566406 c -0.2461,0 -0.46094,-0.175781 -0.50782,-0.425781 L 297.8125,90.53125 c -0.0508,-0.277344 0.13672,-0.546875 0.41406,-0.597656 0.27735,-0.05078 0.55078,0.136718 0.59766,0.417968 l 0.46875,2.609376 c 0.0469,0.277343 -0.13672,0.546874 -0.41797,0.597656 -0.0273,0.0039 -0.0586,0.0078 -0.0898,0.0078"
     fill-opacity="1"
     fill-rule="nonzero"
     id="path144" />
  <path
     fill="#333333"
     d="m 299.87109,99.644531 c -0.24218,0 -0.45703,-0.175781 -0.5039,-0.425781 l -0.46875,-2.609375 c -0.0508,-0.277344 0.13672,-0.546875 0.41797,-0.597656 0.28125,-0.05078 0.54687,0.136719 0.59765,0.414062 l 0.46485,2.613281 c 0.0508,0.28125 -0.13282,0.546876 -0.41407,0.597657 -0.0312,0.0039 -0.0586,0.0078 -0.0937,0.0078"
     fill-opacity="1"
     fill-rule="nonzero"
     id="path146" />
  <path
     fill="#333333"
     d="m 294.75391,96.078125 c -0.2461,0 -0.46485,-0.175781 -0.50782,-0.425781 -0.0508,-0.277344 0.13672,-0.546875 0.41407,-0.597656 l 2.60937,-0.464844 c 0.28125,-0.05078 0.54688,0.132812 0.59766,0.414062 0.0508,0.28125 -0.13672,0.550782 -0.41407,0.601563 l -2.60937,0.464843 c -0.0312,0.0039 -0.0625,0.0078 -0.0898,0.0078"
     fill-opacity="1"
     fill-rule="nonzero"
     id="path148" />
  <path
     fill="#333333"
     d="m 300.83203,94.988281 c -0.24609,0 -0.46484,-0.171875 -0.50781,-0.425781 -0.0508,-0.277344 0.13672,-0.546875 0.41406,-0.597656 L 303.35156,93.5 c 0.27735,-0.05078 0.54297,0.136719 0.59766,0.417969 0.0469,0.28125 -0.14063,0.546875 -0.41797,0.597656 l -2.60938,0.464844 c -0.0312,0.0039 -0.0625,0.0078 -0.0898,0.0078"
     fill-opacity="1"
     fill-rule="nonzero"
     id="path150" />
  <path
     fill="rgb(99.609375%, 39.608765%, 0%)"
     d="m 121.89453,336.23437 c -2.49219,-4.44921 -2.17969,-6.53515 -1.47265,-7.61718 1.26562,-1.92578 4.09375,-1.11328 5.34765,-3.20703 1.28516,-2.15235 -1.05078,-4.10938 -0.17969,-6.86719 1.02735,-3.26172 6.125,-6.33985 9.39844,-4.49219 2.79688,1.58203 3.53516,6.35547 1.86719,8.82031 -1.84375,2.73828 -5.91406,1.54297 -7.0625,4.08985 -1.05469,2.34765 1.84766,4.5664 0.91797,6.73437 -0.53125,1.2461 -2.39063,2.6211 -8.81641,2.53906"
     fill-opacity="1"
     fill-rule="nonzero"
     id="path152"
     style="fill:#aa0000" />
  <path
     fill="rgb(100%, 79.998779%, 19.999695%)"
     d="m 121.42578,338.56641 c -0.0586,0 -0.11328,-0.008 -0.16797,-0.0312 -0.26953,-0.0899 -0.41406,-0.38672 -0.32031,-0.65235 4.58594,-13.2539 10.61328,-17.55469 10.86719,-17.73047 0.23437,-0.16406 0.55469,-0.10547 0.71484,0.12891 0.16406,0.23437 0.10547,0.55469 -0.1289,0.71484 -0.0586,0.043 -6.01563,4.32813 -10.48047,17.22266 -0.0703,0.21484 -0.27344,0.34766 -0.48438,0.34766"
     fill-opacity="1"
     fill-rule="nonzero"
     id="path154"
     style="fill:#ffd42a" />
  <path
     fill="rgb(100%, 79.998779%, 19.999695%)"
     d="m 118.03125,334.69922 c -0.0234,-4.15625 1.16406,-6.6875 2.25781,-8.23047 1.99219,-2.8125 4.19922,-3.10156 4.95703,-5.82422 0.71875,-2.56641 -0.96093,-3.34375 -0.39843,-6.23437 0.67187,-3.44532 3.3164,-3.6836 3.99609,-6.51954 0.82813,-3.45312 -2.58203,-5.19921 -4.29687,-10.04687 -2.21485,-6.26953 1.46093,-9.10547 0.62109,-14.96094 -1.36328,-9.5 -13.36719,-18.25781 -18.50391,-15.87109 -4.83984,2.25 -5.1914,15.16406 -1.28125,24.54687 4.17188,10 10.62891,9.85547 11.57032,18.21485 0.64843,5.77734 -2.0625,9.16406 -0.66797,18.04297 0.47265,3.0039 1.21875,5.39453 1.74609,6.88281"
     fill-opacity="1"
     fill-rule="nonzero"
     id="path156"
     style="fill:#ffd42a" />
  <path
     fill="rgb(99.609375%, 39.608765%, 0%)"
     d="m 119.30469,338.75391 c -0.19531,0 -0.38281,-0.10938 -0.46875,-0.30079 -2.51953,-5.5039 -1.50391,-11.5 -0.21485,-19.09375 0.67188,-3.96875 1.4336,-8.46484 1.73047,-13.41015 0.81641,-13.74219 -10.67968,-30.40235 -10.79687,-30.57031 -0.16406,-0.23438 -0.10547,-0.55469 0.1289,-0.71875 0.23047,-0.16016 0.55079,-0.10547 0.71485,0.1289 0.48437,0.69141 11.82031,17.1211 10.98047,31.22266 -0.29688,5 -1.06641,9.52734 -1.74219,13.51953 -1.25781,7.41797 -2.25391,13.27734 0.13672,18.49219 0.11719,0.26172 0.004,0.5664 -0.25391,0.68359 -0.0703,0.0352 -0.14453,0.0469 -0.21484,0.0469"
     fill-opacity="1"
     fill-rule="nonzero"
     id="path158"
     style="fill:#aa0000" />
  <path
     fill="rgb(99.609375%, 39.608765%, 0%)"
     d="m 114.96875,335.71484 c -0.55859,-2.64453 -1.14453,-6.54297 -0.94922,-11.23828 0.31641,-7.66015 2.44531,-10.91797 0.3086,-13.78125 -2.35547,-3.15625 -6.32032,-1.04297 -9.12891,-4.79687 -1.91406,-2.5586 -0.95313,-4.71875 -3.58203,-7.12891 -0.50391,-0.45703 -2.132815,-1.91406 -4.433596,-2.08984 -2.136719,-0.16797 -2.890625,0.91797 -5.613282,1.86718 -4.9375,1.72266 -7.136718,-0.20703 -8.949218,1.60547 -1.609375,1.60547 -1.925782,5.15625 -0.394532,7.11719 2.886719,3.69141 10.519532,-0.60937 13.382813,2.89063 2.445313,2.98828 -1.769531,7.77343 0.90625,11.10937 2.410156,3 7.242185,0.86719 9.218755,4.00781 1.51171,2.40235 -0.60547,4.76953 0.79687,7.27344 1.46094,2.60938 5.48828,3.10938 8.4375,3.16406"
     fill-opacity="1"
     fill-rule="nonzero"
     id="path160"
     style="fill:#ff7f2a" />
  <path
     fill="rgb(100%, 79.998779%, 19.999695%)"
     d="m 116.80469,338.64062 c -0.10938,0 -0.21875,-0.0351 -0.3125,-0.10546 -2.56641,-1.98438 -3.44141,-5.23438 -4.76172,-10.15625 -0.98828,-3.67579 -2.22266,-8.25391 -4.59766,-13.85938 -5.28515,-12.44531 -19.722654,-11.03125 -19.867185,-11.01172 -0.28125,0.0274 -0.535156,-0.17578 -0.566406,-0.45703 -0.03125,-0.28125 0.171875,-0.53906 0.453125,-0.57031 0.15625,-0.0156 15.343746,-1.52344 20.925786,11.63672 2.40625,5.66797 3.64843,10.28515 4.64453,13.99609 1.26953,4.71875 2.10937,7.83594 4.39843,9.60547 0.22657,0.17187 0.26563,0.49609 0.0898,0.72266 -0.0977,0.1289 -0.25,0.19921 -0.40625,0.19921"
     fill-opacity="1"
     fill-rule="nonzero"
     id="path162"
     style="fill:#aa0000" />
  <path
     fill="rgb(100%, 79.998779%, 19.999695%)"
     d="m 107.60547,338.05078 c 0.41406,0.18359 21.69922,0 21.69922,0 l -2.65625,21.72656 c -0.0742,0.58594 -0.19922,1.16797 -0.41406,1.71875 -1.04688,2.66797 -3.63672,4.48438 -6.58204,4.48438 -3.29687,0 -6.15625,-2.27344 -6.89453,-5.48828 l -5.15234,-22.44141"
     fill-opacity="1"
     fill-rule="nonzero"
     id="path164"
     style="fill:#aa0000" />
  <path
     fill="#333333"
     d="m 180.51953,235.72266 c 1.14063,-0.0625 2.48047,0.24218 5.16797,0.85156 2.41797,0.54687 3.08594,0.91406 3.38281,1.54687 0.48828,1.03907 -0.23828,2.31641 -0.45703,2.69922 -1.23828,2.16797 -3.5,2.45313 -4.99219,3.44531 -4.82812,3.20313 -2.36718,8.64844 -6.37109,12.05079 -3.8125,3.24218 -7.375,-0.56641 -14.23047,2.52343 -5.39844,2.4375 -4.89453,5.56641 -9.29687,6.94532 -5.375,1.6875 -13.80078,-0.57813 -17.21485,-7.34375 -3.25,-6.4336 -1.0039,-15.02735 3.38672,-17.21875 3.98438,-1.9961 7.06641,2.41015 12.39453,0.34375 5.25,-2.03907 5.65625,-7.67969 9.75391,-7.60547 0.98047,0.0156 0.77734,0.33593 7.23047,2.66797 2.98828,1.08203 3.34765,1.125 3.67187,1.14843 3.21875,0.21485 3.88672,-1.85156 7.57422,-2.05468"
     fill-opacity="1"
     fill-rule="nonzero"
     id="path166" />
  <path
     fill="#ffcc33"
     d="m 192.05078,268.75781 c 2.29688,14.06641 2.5625,14.27344 2.875,15.7461 0,0 0.91016,4.14062 1.16406,8.13281 0.21875,3.46094 -0.43359,24.25781 -11.17968,28.83594 -3.87891,1.65234 -5.00391,-1.38672 -13.26954,-1.05469 -8.46484,0.33594 -10.18359,3.35156 -13.8789,2.29297 -7.99609,-2.28125 -10.60547,-19.44141 -10.16797,-30.04688 0.35938,-8.63672 4.65625,-16.78906 13.25,-33.10156 1.3125,-2.48438 3.40625,-6.27734 6.78125,-6.75781 1.54687,-0.22266 2.16406,0.0156 8.37891,1.71875 6.75781,1.85547 8.47265,-0.11719 11.37109,1.71093 2.99609,1.89063 3.52734,5.48438 4.67578,12.52344"
     fill-opacity="1"
     fill-rule="nonzero"
     id="path168" />
  <path
     fill="#ffffff"
     d="m 179.71875,350.20312 v 6.80079 l -3.27344,-0.19922 -0.64453,-6.60157 h 3.91797"
     fill-opacity="1"
     fill-rule="nonzero"
     id="path170" />
  <path
     fill="#333333"
     d="m 176.91406,356.31641 2.28906,0.14062 v -5.73828 h -2.83593 z m 2.80469,1.20312 c -0.0117,0 -0.0234,0 -0.0312,0 l -3.27344,-0.19922 c -0.2539,-0.0156 -0.45703,-0.21484 -0.48047,-0.46484 l -0.64453,-6.60156 c -0.0156,-0.14454 0.0312,-0.28907 0.12891,-0.39844 0.0977,-0.10547 0.23828,-0.16797 0.38281,-0.16797 h 3.91797 c 0.28125,0 0.51172,0.23047 0.51172,0.51562 v 6.80079 c 0,0.14453 -0.0547,0.27734 -0.16016,0.375 -0.0977,0.0898 -0.22265,0.14062 -0.35156,0.14062"
     fill-opacity="1"
     fill-rule="nonzero"
     id="path172" />
  <path
     fill="#ffffff"
     d="m 175.95312,365.48828 c 1.33204,0.14063 3.51172,0.23438 6.05469,-0.20312 0.83203,-0.14454 1.35938,-0.97657 1.13281,-1.78907 -0.63671,-2.26562 -1.89453,-6.49218 -2.89843,-8.51562 l -0.60547,1.10547 -0.48047,-1.16797 c -0.0859,-0.13672 -0.22656,-0.22656 -0.38672,-0.24219 l -1.25781,-0.11719 c -0.26172,-0.0234 -0.57422,0.23438 -0.6211,0.49219 l -0.82421,1.03516 -0.47657,-1.23047 -0.89453,9.07812 c -0.0742,0.77344 0.48438,1.46875 1.25781,1.55469"
     fill-opacity="1"
     fill-rule="nonzero"
     id="path174" />
  <path
     fill="#333333"
     d="m 176.00781,364.97266 c 1.33985,0.14453 3.45313,0.22656 5.91406,-0.19532 0.25782,-0.0469 0.47657,-0.1914 0.61719,-0.41406 0.13672,-0.21875 0.17578,-0.47656 0.10547,-0.72656 -0.44922,-1.60156 -1.50391,-5.21485 -2.44922,-7.5 l -0.10547,0.19531 c -0.0937,0.17188 -0.28515,0.27344 -0.48047,0.26563 -0.19531,-0.0117 -0.37109,-0.13282 -0.44921,-0.31641 l -0.45313,-1.09766 -1.24219,-0.11328 c 0,0.008 -0.0586,0.0547 -0.0703,0.0859 -0.0156,0.0859 -0.0469,0.14844 -0.10156,0.21875 l -0.82422,1.03125 c -0.11719,0.14453 -0.30078,0.21484 -0.48047,0.1875 -0.0195,-0.004 -0.0352,-0.008 -0.0508,-0.0117 l -0.73047,7.40234 c -0.0469,0.49219 0.3125,0.9375 0.80078,0.98829 z m 2.21875,1.14843 c -0.91015,0 -1.69922,-0.0547 -2.32812,-0.12109 -1.05078,-0.11328 -1.82032,-1.0625 -1.71485,-2.11719 l 0.89063,-9.07422 c 0.0234,-0.23828 0.20703,-0.42968 0.44531,-0.46093 0.23438,-0.0312 0.46484,0.10156 0.55078,0.32421 l 0.15235,0.39063 0.20312,-0.25 c 0.16016,-0.45703 0.66406,-0.81641 1.13672,-0.76563 l 1.25391,0.11719 c 0.32031,0.0312 0.61328,0.21485 0.78125,0.49219 0.0117,0.0195 0.0234,0.043 0.0312,0.0664 l 0.0742,0.17187 0.0859,-0.16016 c 0.0937,-0.16796 0.27344,-0.26953 0.46485,-0.26953 0.1914,0.004 0.36328,0.11719 0.44921,0.28516 1.07032,2.16406 2.40625,6.73828 2.9336,8.60937 0.14453,0.52344 0.0625,1.09375 -0.22656,1.55469 -0.29297,0.46485 -0.77344,0.78516 -1.31641,0.87891 -1.42188,0.24219 -2.73828,0.32812 -3.86719,0.32812"
     fill-opacity="1"
     fill-rule="nonzero"
     id="path176" />
  <path
     fill="#333333"
     d="m 179.12109,364.57812 c -1.94531,0 -3.4375,-0.36718 -3.53125,-0.39062 -0.27343,-0.0664 -0.4414,-0.34766 -0.375,-0.62109 0.0703,-0.27735 0.35157,-0.44532 0.625,-0.375 0.0352,0.008 3.25,0.78906 6.25782,0 0.27734,-0.0703 0.55859,0.0898 0.6289,0.36718 0.0742,0.27344 -0.0898,0.5586 -0.36719,0.62891 -1.11328,0.29297 -2.23828,0.39062 -3.23828,0.39062"
     fill-opacity="1"
     fill-rule="nonzero"
     id="path178" />
  <path
     fill="#333333"
     d="m 180.24219,361.04687 h -2.98828 c -0.28125,0 -0.51563,-0.23046 -0.51563,-0.51562 0,-0.28516 0.23438,-0.51563 0.51563,-0.51563 h 2.98828 c 0.28515,0 0.51562,0.23047 0.51562,0.51563 0,0.28516 -0.23047,0.51562 -0.51562,0.51562"
     fill-opacity="1"
     fill-rule="nonzero"
     id="path180" />
  <path
     fill="#ffffff"
     d="m 155.64844,346.60547 -0.96875,8.19922 -3.06641,-0.10547 v -8.09375 h 4.03516"
     fill-opacity="1"
     fill-rule="nonzero"
     id="path182" />
  <path
     fill="#333333"
     d="m 152.12891,354.19922 2.09375,0.0742 0.84375,-7.15235 h -2.9375 z m 2.55078,1.12109 c -0.004,0 -0.0117,0 -0.0195,0 l -3.06641,-0.10547 c -0.27734,-0.0117 -0.49609,-0.23828 -0.49609,-0.51562 v -8.09375 c 0,-0.28516 0.23047,-0.51563 0.51562,-0.51563 h 4.03516 c 0.14453,0 0.28515,0.0625 0.38281,0.17188 0.0977,0.10937 0.14453,0.25781 0.12891,0.40234 l -0.96875,8.19922 c -0.0312,0.26172 -0.25,0.45703 -0.51172,0.45703"
     fill-opacity="1"
     fill-rule="nonzero"
     id="path184" />
  <path
     fill="#ffffff"
     d="m 155.41016,352.84766 c 0,0 0.39453,3.64062 0.27343,5.10937 -0.0898,1.04688 -1.52734,4.21094 -2.33984,5.92969 -0.33203,0.70312 -0.96875,1.15625 -1.67187,1.1875 -0.86329,0.0391 -2.0586,0.082 -3.02344,0.082 -1.32813,0.004 -2.24219,-1.50781 -1.76953,-2.91406 0.4375,-1.30078 1.13281,-2.92578 2.22656,-4.66016 0.82422,-1.30469 2.02344,-4.85547 2.02344,-4.85547 h 2.5 l 0.49218,2.07813 1.28907,-1.95703"
     fill-opacity="1"
     fill-rule="nonzero"
     id="path186" />
  <path
     fill="#333333"
     d="m 151.49609,353.24219 c -0.32812,0.9414 -1.25781,3.5039 -1.95312,4.61328 -0.91406,1.44531 -1.64453,2.97656 -2.17188,4.55078 -0.19531,0.57031 -0.10937,1.19531 0.23047,1.66406 0.26563,0.36719 0.63672,0.57031 1.04297,0.57031 0.004,0 0.004,0 0.004,0 0.96094,0 2.16015,-0.043 3,-0.082 0.50781,-0.0195 0.98047,-0.36328 1.23047,-0.89453 1.375,-2.91015 2.23047,-5.0625 2.28906,-5.7539 0.0703,-0.82032 -0.0352,-2.39063 -0.13281,-3.55469 l -0.48438,0.73047 c -0.11328,0.17578 -0.3164,0.26172 -0.51953,0.22656 -0.20312,-0.0391 -0.36328,-0.19141 -0.41406,-0.39063 l -0.39453,-1.67968 z m -2.85156,12.42968 c -0.73828,0 -1.42187,-0.36328 -1.8789,-1 -0.53125,-0.73828 -0.67188,-1.71093 -0.3711,-2.59765 0.55469,-1.64844 1.32031,-3.25391 2.27735,-4.76953 0.78125,-1.23828 1.96093,-4.70703 1.96875,-4.74219 0.0742,-0.20703 0.26953,-0.35156 0.48828,-0.35156 h 2.5 c 0.23828,0 0.44922,0.16797 0.5039,0.39843 l 0.21485,0.91407 0.63281,-0.96094 c 0.11719,-0.17969 0.33984,-0.26953 0.55078,-0.21484 0.21094,0.0508 0.36719,0.22656 0.39063,0.44531 0.0156,0.14844 0.39843,3.70703 0.27343,5.20312 -0.0898,1.07032 -1.34375,3.91016 -2.38281,6.10938 -0.41406,0.8789 -1.22656,1.44531 -2.12109,1.48437 -0.84766,0.0352 -2.0625,0.082 -3.04297,0.082 0,0 0,0 -0.004,0"
     fill-opacity="1"
     fill-rule="nonzero"
     id="path188" />
  <path
     fill="#333333"
     d="m 154.65234,359.75 c 0,0 -0.004,0 -0.004,0 0,0 0.004,0 0.004,0 z m -4.09765,4.35937 c 0,0 -0.004,0 -0.004,0 h -2.84765 c -0.28125,0 -0.51172,-0.23437 -0.51172,-0.51562 0,-0.28516 0.23047,-0.51563 0.51562,-0.51563 h 2.84375 c 0,0 0.004,0 0.004,0 0.79297,0 1.51953,-0.46484 1.89062,-1.21484 1.3711,-2.76172 1.4375,-2.81641 1.55469,-2.91016 0.21875,-0.18359 0.54297,-0.14843 0.72266,0.0742 0.16015,0.19141 0.15234,0.46875 -0.004,0.65235 -0.0547,0.0898 -0.30078,0.52734 -1.34766,2.64062 -0.54687,1.10547 -1.6289,1.78906 -2.8164,1.78906"
     fill-opacity="1"
     fill-rule="nonzero"
     id="path190" />
  <path
     fill="#333333"
     d="m 151.75781,361.14453 h -2.73828 c -0.28515,0 -0.51562,-0.22656 -0.51562,-0.51172 0,-0.28515 0.23047,-0.51562 0.51562,-0.51562 h 2.73828 c 0.28516,0 0.51563,0.23047 0.51563,0.51562 0,0.28516 -0.23047,0.51172 -0.51563,0.51172"
     fill-opacity="1"
     fill-rule="nonzero"
     id="path192" />
  <path
     fill="#333333"
     d="m 184.97266,282.19922 c 0,0 -0.32422,25.02734 -1.375,41.32031 -1.05079,16.29688 -3.12891,28.75391 -3.12891,28.75391 0,0 -3.56641,1.28515 -5.91016,0.61328 0,0 -1.9414,-14.29297 -2.3789,-19.125 -0.44141,-4.83203 0.72656,-7.23047 0.82812,-11.1836 0.0977,-3.95312 -1.70312,-21.41406 -1.70312,-21.41406 0,0 -13.45703,39.46875 -14.9961,48.1875 0,0 -3.25781,0.55078 -5.55468,-0.70312 0,0 -0.0703,-15.52344 0.2539,-17.91797 0.60547,-4.44531 4.07422,-8.82031 4.69922,-13.53906 0.6211,-4.71875 0.98438,-16.5625 2.69922,-23.66407 1.71484,-7.10547 5.08203,-15.08593 5.08203,-15.08593 l 21.48438,3.75781"
     fill-opacity="1"
     fill-rule="nonzero"
     id="path194" />
  <path
     fill="#ffffff"
     d="m 162.05469,291.75781 c -0.20313,0 -0.39844,-0.11719 -0.47656,-0.32031 -0.10938,-0.26172 0.0156,-0.5625 0.28125,-0.66797 4.24218,-1.74219 5.49609,-5.88281 5.50781,-5.92578 0.0781,-0.27344 0.36328,-0.42969 0.63672,-0.35156 0.27343,0.082 0.42968,0.36718 0.35156,0.64062 -0.0547,0.1875 -1.40625,4.66406 -6.10547,6.58594 -0.0664,0.0273 -0.13281,0.0391 -0.19531,0.0391"
     fill-opacity="1"
     fill-rule="nonzero"
     id="path196" />
  <path
     fill="#ffffff"
     d="m 157.99219,303.42187 c -0.0234,0 -0.0469,0 -0.0703,-0.004 -0.28125,-0.0352 -0.48047,-0.29297 -0.44141,-0.57813 1.55469,-11.96484 6.23437,-19.97656 6.28125,-20.05468 0.14453,-0.2461 0.46094,-0.32813 0.70703,-0.17969 0.24219,0.14453 0.32422,0.45703 0.17969,0.70312 -0.0469,0.0781 -4.6211,7.92188 -6.14844,19.66407 -0.0352,0.26171 -0.25391,0.44921 -0.50781,0.44921"
     fill-opacity="1"
     fill-rule="nonzero"
     id="path198" />
  <path
     fill="#ffffff"
     d="m 221.60937,237.36328 -4.32812,4.66406 -0.33203,5.07032 c -0.88672,1.26171 -1.44531,3.39062 -2.42578,4.37109 0.39453,0.375 0.16406,0.26953 0.54687,0.65625 0.6211,0.62891 1.19141,0.92187 1.80078,1.5625 1.46875,-3.30469 1.80469,-6.07813 1.80469,-6.07813 3.29688,-1.5039 2.37109,-4.13671 1.94531,-4.74609 -0.42968,-0.60937 0.008,-1.51953 1.16016,-3.14062 1.26562,-1.76954 -0.17188,-2.35938 -0.17188,-2.35938"
     fill-opacity="1"
     fill-rule="nonzero"
     id="path200" />
  <path
     fill="#333333"
     d="m 216.94922,247.09766 h 0.004 z m -1.74219,4.36718 c 0.0156,0.0273 0.0312,0.0547 0.0469,0.0781 0.0234,0.043 0.043,0.082 0.18359,0.22265 0.27734,0.27735 0.54297,0.48829 0.82422,0.70704 0.14062,0.10546 0.28125,0.21875 0.42578,0.33593 1.17578,-2.89062 1.47266,-5.23437 1.47656,-5.25781 0.0234,-0.17969 0.13672,-0.33594 0.29688,-0.41016 1.10937,-0.5039 1.78906,-1.18359 2.01172,-2.01562 0.23437,-0.85938 -0.082,-1.69531 -0.27344,-1.96875 -0.6875,-0.97656 0.12109,-2.26563 1.16406,-3.73438 0.34766,-0.48046 0.48438,-0.89453 0.39844,-1.18359 -0.0195,-0.0703 -0.0508,-0.13281 -0.0898,-0.18359 l -3.89062,4.1914 -0.31641,4.88282 c -0.008,0.0977 -0.0391,0.1875 -0.0937,0.26562 -0.35937,0.50781 -0.67578,1.20703 -0.98047,1.88281 -0.35937,0.78125 -0.72265,1.58203 -1.18359,2.1875 z m 1.66406,2.73828 c -0.13672,0 -0.27343,-0.0586 -0.37109,-0.16015 -0.28906,-0.30469 -0.57031,-0.52344 -0.87109,-0.75781 -0.29297,-0.23047 -0.60157,-0.46875 -0.92579,-0.79688 -0.21484,-0.21875 -0.28515,-0.32812 -0.34375,-0.43359 -0.0234,-0.0391 -0.043,-0.0742 -0.1914,-0.21485 -0.0977,-0.0977 -0.15625,-0.22656 -0.15625,-0.36718 -0.004,-0.13672 0.0508,-0.26954 0.14844,-0.36719 0.48828,-0.49219 0.89453,-1.38672 1.28906,-2.25391 0.30469,-0.67187 0.61719,-1.36328 0.99609,-1.92969 l 0.32031,-4.92578 c 0.008,-0.12109 0.0547,-0.23047 0.13672,-0.32031 l 4.32813,-4.66406 c 0.14844,-0.15625 0.375,-0.20703 0.57422,-0.125 0.0742,0.0312 0.73437,0.32031 0.94922,1.0664 0.17578,0.61329 -0.008,1.3086 -0.55079,2.07032 -0.73437,1.02734 -1.44531,2.13672 -1.16015,2.54297 0.29687,0.42187 0.76953,1.5625 0.42578,2.82812 -0.29297,1.07031 -1.07031,1.93359 -2.32031,2.5625 -0.12891,0.80078 -0.57813,3.17578 -1.80469,5.9375 -0.0703,0.16016 -0.21484,0.26953 -0.38281,0.30078 -0.0312,0.004 -0.0586,0.008 -0.0898,0.008"
     fill-opacity="1"
     fill-rule="nonzero"
     id="path202" />
  <path
     fill="#ffffff"
     d="m 187.42187,254.53906 c 0,0 -8.02734,-1.14844 -15.93359,-1.3789 0,0 -9.91406,25.86328 -9.91015,27.60937 0,1.74609 4.23046,3.97656 9.91015,2.55078 5.67969,-1.42187 12.89453,-1.5625 16.95313,-0.61328 6.07812,1.41797 -1.01954,-28.16797 -1.01954,-28.16797"
     fill-opacity="1"
     fill-rule="nonzero"
     id="path204" />
  <path
     fill="#333333"
     d="m 171.83984,253.6875 c -3.96093,10.33594 -9.73046,25.83594 -9.74609,27.08203 0,0.32422 0.27344,0.72266 0.75,1.09375 1.49219,1.16797 4.71094,1.91406 8.51953,0.96094 5.45703,-1.3711 12.85156,-1.63672 17.19531,-0.6211 0.375,0.0898 0.64844,0.0195 0.88672,-0.22265 2.6211,-2.63281 -0.80078,-20.03906 -2.44531,-26.97656 -1.58984,-0.21875 -8.41406,-1.09766 -15.16016,-1.31641 z m -3.91406,30.60937 c -2.62109,0 -4.61719,-0.76562 -5.71484,-1.62109 -0.74219,-0.57812 -1.14844,-1.25391 -1.14844,-1.90625 0,-1.78906 8.92578,-25.13672 9.94531,-27.79297 0.0781,-0.20703 0.28125,-0.34765 0.4961,-0.33203 7.84375,0.23047 15.91015,1.37109 15.99218,1.38281 0.20703,0.0312 0.37891,0.1875 0.42578,0.39063 0.60547,2.51953 5.80469,24.71875 2.25782,28.28906 -0.49219,0.49609 -1.13672,0.66797 -1.85547,0.5 -4.20703,-0.98437 -11.39063,-0.71875 -16.71094,0.61719 -1.32812,0.33203 -2.56641,0.47265 -3.6875,0.47265"
     fill-opacity="1"
     fill-rule="nonzero"
     id="path206" />
  <path
     fill="#ffcc33"
     d="m 214.87891,248.10937 2.96484,5.29297 c 0,0 -1.83203,12.61328 -9.92578,16.95703 -7.86719,4.22657 -15.9961,1.91407 -15.9961,1.91407 l 0.73438,16.7539 c 0,0 -4.10547,2.4336 -4.10547,2.21875 0,-0.21875 -1.79297,-37.3789 -1.79297,-37.3789 0,0 3.3125,0.0508 4.78906,2.15625 1.47657,2.10156 5.95704,5.84375 12.25391,4.55468 8.03906,-1.64453 11.07813,-12.46875 11.07813,-12.46875"
     fill-opacity="1"
     fill-rule="nonzero"
     id="path208" />
  <path
     fill="#333333"
     d="m 196.66016,263.25 -14.54688,-1.38281 c -0.48828,0 -0.94922,0.375 -1.03125,0.84375 l -3.51172,20.03125 c -0.082,0.46484 0.2461,0.84375 0.73828,0.84375 l 15.42188,-0.69922 c 0.48828,0 1,0.32031 1.08203,-0.14453 l 3.51172,-20.03125 c 0.082,-0.46875 -1.17578,0.53906 -1.66406,0.53906"
     fill-opacity="1"
     fill-rule="nonzero"
     id="path210" />
  <path
     fill="#333333"
     d="m 182.09375,262.37891 c -0.23047,0.0117 -0.46484,0.20703 -0.50391,0.41796 l -3.51172,20.03125 c -0.008,0.0508 -0.008,0.1211 0.0352,0.17188 0.0391,0.0469 0.10547,0.0703 0.19531,0.0703 l 15.39844,-0.69922 c 0.22656,0.008 0.41797,0.0391 0.57031,0.0703 0.0195,0.004 0.0391,0.008 0.0625,0.0117 l 3.33985,-19.05078 c -0.44141,0.23438 -0.76172,0.39063 -1.07032,0.35938 z m -3.76563,21.72265 c -0.41406,0 -0.76953,-0.16015 -1.0039,-0.4414 -0.23047,-0.27344 -0.32422,-0.64063 -0.26172,-1.00782 l 3.51172,-20.03125 c 0.125,-0.71093 0.80078,-1.27343 1.53906,-1.27343 0.0156,0 0.0352,0.004 0.0508,0.004 l 14.5,1.37891 c 0.13281,-0.0234 0.47656,-0.20703 0.66406,-0.3086 0.53516,-0.28515 0.91797,-0.49609 1.27344,-0.23828 0.1875,0.13672 0.27344,0.36719 0.23047,0.61328 l -3.51172,20.03125 c -0.0547,0.30079 -0.21094,0.46094 -0.33203,0.54688 -0.29687,0.19922 -0.63672,0.13281 -0.91406,0.0781 -0.11719,-0.0234 -0.2461,-0.0508 -0.34375,-0.0508 l -15.40235,0.69922"
     fill-opacity="1"
     fill-rule="nonzero"
     id="path212" />
  <path
     fill="#ffffff"
     d="m 198.07031,261.86719 h -15.47265 c -0.48829,0 -0.95313,0.375 -1.03125,0.84375 l -3.51563,20.03125 c -0.082,0.46484 0.25,0.84375 0.73828,0.84375 h 15.47266 c 0.48828,0 0.94922,-0.37891 1.03125,-0.84375 l 3.51172,-20.03125 c 0.082,-0.46875 -0.2461,-0.84375 -0.73438,-0.84375"
     fill-opacity="1"
     fill-rule="nonzero"
     id="path214" />
  <path
     fill="#333333"
     d="m 182.59766,262.37891 c -0.23829,0 -0.48829,0.19921 -0.52735,0.41796 l -3.51172,20.03125 c -0.008,0.0508 -0.008,0.1211 0.0352,0.17188 0.0391,0.0469 0.10937,0.0703 0.19531,0.0703 h 15.47266 c 0.23437,0 0.48437,-0.19922 0.52344,-0.41797 l 3.51171,-20.03125 c 0.008,-0.0508 0.0117,-0.11718 -0.0312,-0.16797 -0.0391,-0.0469 -0.10937,-0.0742 -0.19531,-0.0742 z m 11.66406,21.72265 h -15.47266 c -0.39062,0 -0.75,-0.16015 -0.98437,-0.4414 -0.23047,-0.27344 -0.32422,-0.64063 -0.25782,-1.00782 l 3.51172,-20.03125 c 0.125,-0.71093 0.80078,-1.27343 1.53907,-1.27343 h 15.47265 c 0.39063,0 0.7461,0.16406 0.98438,0.4414 0.22656,0.27344 0.32031,0.64063 0.25781,1.00781 l -3.51172,20.03125 c -0.125,0.71485 -0.80078,1.27344 -1.53906,1.27344"
     fill-opacity="1"
     fill-rule="nonzero"
     id="path216" />
  <path
     fill="#ffffff"
     d="m 179.16016,269.84375 0.16796,2.04687 6.21875,-1.1289 c 0,0 0.14063,0.20703 0.22657,0.53515 0.11718,0.44532 0.1289,1.11719 -0.44141,1.82813 -0.26953,0.33594 -1.34375,0.34766 -1.26172,1.01953 0.0742,0.58594 -2.35547,1.03906 -4.45703,1.42969 -2.35547,0.4375 -2.15234,-2.91797 -1.57031,-4.63281 0.45312,-1.33985 1.11719,-1.09766 1.11719,-1.09766"
     fill-opacity="1"
     fill-rule="nonzero"
     id="path218" />
  <path
     fill="#333333"
     d="m 179.03516,270.33984 h 0.004 z m -0.32422,0.34375 c -0.0586,0.10547 -0.1211,0.2461 -0.17969,0.42188 -0.43359,1.27734 -0.51953,3.07812 0.0469,3.72656 0.12891,0.15234 0.3711,0.34375 0.94141,0.23828 1.25391,-0.23437 3.53906,-0.66015 4.03125,-1.01172 0,-0.71484 0.69141,-0.98047 1.07422,-1.1289 0.10937,-0.0391 0.27734,-0.10547 0.32031,-0.14063 0.33985,-0.42578 0.45313,-0.88672 0.33203,-1.35937 -0.008,-0.0352 -0.0195,-0.0625 -0.0273,-0.0898 l -5.83203,1.0586 c -0.14063,0.0273 -0.28906,-0.0117 -0.40625,-0.0977 -0.11328,-0.0898 -0.1875,-0.22266 -0.19922,-0.36719 z m 0.5039,5.44532 c -0.71093,0 -1.15625,-0.32032 -1.41797,-0.6211 -0.97265,-1.125 -0.67968,-3.44922 -0.24218,-4.73047 0.23437,-0.6914 0.5664,-1.14843 0.99218,-1.35156 0.3086,-0.14844 0.60938,-0.13281 0.78907,-0.0664 0.1875,0.0664 0.32031,0.24219 0.33593,0.44141 l 0.1211,1.48047 5.66015,-1.02734 c 0.19922,-0.0391 0.39844,0.0469 0.51563,0.21093 0.0195,0.0312 0.19922,0.29297 0.30469,0.70313 0.14453,0.55469 0.16797,1.40234 -0.53907,2.28125 -0.18359,0.23047 -0.46484,0.33594 -0.73828,0.44531 -0.13281,0.0508 -0.375,0.14453 -0.42578,0.20703 0.13672,0.95313 -1.30469,1.32031 -4.86328,1.98047 -0.17578,0.0352 -0.34375,0.0469 -0.49219,0.0469"
     fill-opacity="1"
     fill-rule="nonzero"
     id="path220" />
  <path
     fill="#ffcc33"
     d="m 178.38281,275.49609 -1.24609,-1.89453 c 0,0 -6.1836,1.25391 -9.03906,0 -4.98828,-2.1914 -4.04297,-9.84765 -3.19532,-13.66015 0.84766,-3.8086 2.72266,-7.13672 2.72266,-7.13672 0,0 -4.58203,2.58593 -7.6875,8.27734 -3.10547,5.69141 -4.11719,18.42969 6.27344,20.73047 6.79687,1.50781 12.17187,-6.31641 12.17187,-6.31641"
     fill-opacity="1"
     fill-rule="nonzero"
     id="path222" />
  <path
     fill="#ffffff"
     d="m 160.89453,279.59766 c -0.11328,0 -0.23437,-0.0391 -0.32812,-0.1211 -3.44141,-2.89062 -3.22266,-8.88281 -3.21094,-9.14062 0.0117,-0.28125 0.24609,-0.5 0.53516,-0.48828 0.28515,0.0117 0.5039,0.25 0.49218,0.53515 0,0.0586 -0.20312,5.74219 2.84375,8.30469 0.21875,0.18359 0.2461,0.50781 0.0625,0.72656 -0.10156,0.1211 -0.24609,0.1836 -0.39453,0.1836"
     fill-opacity="1"
     fill-rule="nonzero"
     id="path224" />
  <path
     fill="#ffffff"
     d="m 180.07031,243.60547 c 0.15235,0.0898 0.35156,0.0234 0.41797,-0.14063 0.32422,-0.79297 0.83984,-2.32812 1.89844,-2.57031 1.35156,-0.31641 3.54687,-0.71875 3.73437,0.35547 0.16797,0.9375 -0.0312,2.55859 0.96094,3.73047 0.0937,0.11328 0.0117,0.29297 -0.10547,0.38281 l -0.62109,0.52344 c -0.13281,0.10156 -0.2461,0.4375 -0.26172,0.60156 -0.0508,0.50781 -0.11328,1.58984 -0.28906,1.73047 -0.34375,0.27344 -2.05469,0.16797 -2.05469,0.16797 l -1.375,4.72656 c -0.0547,0.17969 0.0508,0.36719 0.23047,0.41406 l 1.63672,0.55469 c 0,0 -1.3125,1.83984 -5.41407,1.5625 -2.62109,-0.17969 -4.54296,-2.02344 -4.54296,-2.02344 0,0 5.09765,-0.72656 5.78906,-6.7539 0.0117,-0.13282 -0.043,-0.26172 -0.14844,-0.34375 -0.40625,-0.30469 -1.50391,-1.20313 -1.3125,-2.11719 0.20313,-0.96875 0.92969,-1.11719 1.45703,-0.80078"
     fill-opacity="1"
     fill-rule="nonzero"
     id="path226" />
  <path
     fill="#333333"
     d="m 186.6875,245.3125 z m 0.004,0.96484 -0.004,0.004 c 0,0 0.004,-0.004 0.004,-0.004 z m -7.07422,0.66016 z m 5.77343,0.98828 z m -9.98828,5.91406 c 0.75,0.51563 1.9961,1.19141 3.46094,1.28907 2.31641,0.15625 3.67188,-0.40235 4.36328,-0.84766 l -0.76953,-0.26172 c -0.21094,-0.0625 -0.39062,-0.20312 -0.5,-0.39453 -0.11328,-0.19531 -0.14062,-0.4375 -0.0781,-0.65625 l 1.375,-4.72656 c 0.0664,-0.23047 0.28515,-0.38282 0.52734,-0.36719 0.65234,0.0391 1.35937,0.0156 1.64062,-0.0469 0.0625,-0.26562 0.11329,-0.84375 0.13672,-1.11328 l 0.0234,-0.27734 c 0.0156,-0.17188 0.13672,-0.71484 0.46094,-0.96094 l 0.46484,-0.39062 c -0.68359,-0.96875 -0.76172,-2.125 -0.82031,-2.98438 -0.0195,-0.28515 -0.0391,-0.55469 -0.0742,-0.76562 -0.008,-0.0469 -0.0234,-0.082 -0.0859,-0.125 -0.21484,-0.14063 -0.89453,-0.3086 -3.02734,0.18359 -0.69922,0.16406 -1.16406,1.33594 -1.44531,2.03516 l -0.0898,0.22656 c -0.0898,0.21875 -0.26562,0.38672 -0.48828,0.46094 -0.22265,0.0781 -0.46875,0.0508 -0.66797,-0.0703 -0.004,0 -0.004,0 -0.004,0 -0.12891,-0.0781 -0.27344,-0.0977 -0.37891,-0.0508 -0.14062,0.0625 -0.25,0.2461 -0.30859,0.51563 -0.082,0.40625 0.34375,1.01953 1.11718,1.60156 0.25,0.1875 0.38672,0.5 0.35157,0.8125 -0.52735,4.61719 -3.55078,6.32422 -5.1836,6.91406 z m 4.2461,2.34766 c -0.27344,0 -0.5586,-0.008 -0.85547,-0.0273 -2.77735,-0.19141 -4.78125,-2.08985 -4.86328,-2.16797 -0.14063,-0.13672 -0.19532,-0.34375 -0.13282,-0.53125 0.0625,-0.1875 0.22266,-0.32422 0.41797,-0.35157 0.1875,-0.0312 4.67188,-0.7539 5.33594,-6.22265 -0.66797,-0.51172 -1.67187,-1.49219 -1.44141,-2.58594 0.12891,-0.60547 0.44922,-1.05078 0.90235,-1.25 0.34375,-0.14844 0.72656,-0.14844 1.08984,-0.004 0.35156,-0.89062 0.94141,-2.375 2.16797,-2.65625 1.99219,-0.46093 3.17188,-0.47265 3.82813,-0.0352 0.28906,0.1914 0.47265,0.46875 0.53125,0.80078 0.0469,0.26562 0.0664,0.55859 0.0859,0.875 0.0586,0.875 0.12891,1.86719 0.75782,2.61719 0.125,0.14843 0.17968,0.33984 0.16015,0.53515 -0.0234,0.22266 -0.15625,0.44532 -0.34375,0.58985 l -0.59375,0.49609 c -0.0352,0.0625 -0.082,0.20703 -0.0898,0.26563 l -0.0195,0.26953 c -0.10547,1.1914 -0.1836,1.59765 -0.46094,1.82031 -0.34766,0.27734 -1.21094,0.32031 -1.99609,0.29687 l -1.21094,4.16407 1.48828,0.50781 c 0.15625,0.0508 0.27734,0.17578 0.32422,0.32812 0.0547,0.15625 0.0273,0.32813 -0.0664,0.45704 -0.0586,0.082 -1.33594,1.80859 -5.01562,1.80859"
     fill-opacity="1"
     fill-rule="nonzero"
     id="path228" />
  <path
     fill="#333333"
     d="m 353.58203,142.20313 c -0.19141,0 -0.375,-0.10547 -0.46484,-0.28907 -11.20703,-23.15625 -37.15235,-38.89843 -37.41016,-39.05468 -0.24609,-0.14454 -0.32422,-0.46094 -0.17969,-0.70704 0.14453,-0.24218 0.46094,-0.32421 0.70703,-0.17578 0.26172,0.15625 26.47266,16.0586 37.8125,39.48828 0.1211,0.25391 0.0156,0.5625 -0.24218,0.6875 -0.0703,0.0352 -0.14844,0.0508 -0.22266,0.0508"
     fill-opacity="1"
     fill-rule="nonzero"
     id="path230" />
  <path
     fill="#333333"
     d="m 353.14844,129.72266 c -0.1836,0 -0.35938,-0.0937 -0.45313,-0.26172 -9.30078,-16.71485 -32.02734,-30.031252 -32.2539,-30.164065 -0.2461,-0.144531 -0.33204,-0.457031 -0.1875,-0.703125 0.14062,-0.25 0.45703,-0.332031 0.70312,-0.1875 0.23047,0.132812 23.19922,13.59375 32.64063,30.55078 0.13671,0.25 0.0469,0.56641 -0.19922,0.70313 -0.082,0.043 -0.16797,0.0625 -0.25,0.0625"
     fill-opacity="1"
     fill-rule="nonzero"
     id="path232" />
  <path
     fill="#333333"
     d="m 356.07422,144.94922 c -0.79688,0 -1.48047,0.60156 -1.56641,1.41406 -0.0469,0.41797 0.0781,0.82813 0.34375,1.15235 0.26563,0.32812 0.64063,0.53515 1.0586,0.57812 0.41796,0.043 0.83203,-0.0781 1.15625,-0.34375 0.32812,-0.26562 0.53125,-0.64062 0.57421,-1.0625 0.0937,-0.86328 -0.53906,-1.64062 -1.40234,-1.73047 -0.0547,-0.004 -0.10937,-0.008 -0.16406,-0.008 z m 0.008,4.18359 c -0.0937,0 -0.18359,-0.004 -0.27734,-0.0156 -1.42969,-0.14844 -2.46875,-1.4336 -2.32032,-2.86328 0.14844,-1.42969 1.4336,-2.46875 2.86329,-2.32032 1.42578,0.14844 2.46875,1.4336 2.32031,2.86329 -0.0742,0.6914 -0.41016,1.3164 -0.95313,1.7539 -0.46875,0.37891 -1.03906,0.58203 -1.63281,0.58203"
     fill-opacity="1"
     fill-rule="nonzero"
     id="path234" />
</svg>
